<svg version="1.1" id="Layer_1" xmlns="http://www.w3.org/2000/svg" xmlns:xlink="http://www.w3.org/1999/xlink" x="0px" y="0px"
	 width="100%" viewBox="0 0 200 200" enable-background="new 0 0 200 200" xml:space="preserve">
<path fill="#FEFEFF" opacity="1.000000" stroke="none" 
	d="
M108.000000,201.000000 
	C72.022202,201.000000 36.544395,201.000000 1.033298,201.000000 
	C1.033298,134.397232 1.033298,67.794449 1.033298,1.095829 
	C67.560966,1.095829 134.122116,1.095829 200.841644,1.095829 
	C200.841644,67.666367 200.841644,134.333145 200.841644,201.000000 
	C170.128067,201.000000 139.314026,201.000000 108.000000,201.000000 
M97.900551,40.465965 
	C97.702736,40.190186 97.443008,39.998161 96.916534,39.434612 
	C96.708725,39.154118 96.433922,38.978455 95.732101,38.315041 
	C94.512520,37.457714 93.360626,36.476868 92.061371,35.764942 
	C87.055336,33.021870 78.867783,33.161091 75.209221,35.932236 
	C74.130844,36.258289 73.052475,36.584343 71.453735,37.099171 
	C71.204399,37.366920 70.955070,37.634670 70.070923,38.000896 
	C68.696503,39.301868 67.322083,40.602844 65.383919,42.220806 
	C64.664131,43.515175 63.944344,44.809540 62.803154,46.635902 
	C61.609795,48.778320 60.416435,50.920742 58.789139,53.594028 
	C57.846703,55.388199 56.904266,57.182373 55.431404,59.380657 
	C54.001320,61.935734 52.571236,64.490814 50.904541,67.469864 
	C50.904541,67.469864 50.886723,67.955070 50.971291,67.992775 
	C50.971291,67.992775 50.923607,67.913406 50.332447,68.246384 
	C47.606236,73.166527 44.880024,78.086662 41.819954,83.608032 
	C40.513199,85.723961 39.206440,87.839890 37.362476,90.356407 
	C36.186829,92.548492 35.011181,94.740570 33.283031,97.332077 
	C32.547531,99.223335 31.812035,101.114586 30.638329,103.499451 
	C29.757692,104.662720 28.877056,105.825989 27.460543,107.400414 
	C25.885487,110.223785 24.310431,113.047157 22.188498,116.252907 
	C21.050577,118.471184 19.912657,120.689461 18.260012,123.254349 
	C17.583883,124.525658 16.907753,125.796959 15.778859,127.598816 
	C14.639175,129.680359 13.499492,131.761902 12.035048,134.086380 
	C11.876186,134.450348 11.717324,134.814331 11.088489,135.757034 
	C10.441814,137.837799 9.795140,139.918564 8.971687,142.830414 
	C9.128840,145.284149 9.285995,147.737900 9.625443,150.929611 
	C13.249696,161.927368 22.534943,167.910492 33.805950,166.096222 
	C40.681156,164.897415 45.855186,161.381882 49.408726,154.525299 
	C50.959599,151.701218 52.510471,148.877136 54.543442,145.735718 
	C54.740620,145.205765 54.937798,144.675797 55.636070,143.766479 
	C56.314415,142.491882 56.992760,141.217270 57.987747,139.589478 
	C57.987747,139.589478 58.053650,139.119629 58.551430,138.764084 
	C58.757671,138.199600 58.963913,137.635117 59.078186,137.062546 
	C59.078186,137.062546 59.101139,137.151978 59.575699,136.951263 
	C59.683365,136.640030 59.791035,136.328812 60.145325,135.742905 
	C60.145325,135.742905 60.180820,135.375473 60.733776,134.953079 
	C62.236538,132.074020 63.739300,129.194962 65.204033,126.223579 
	C65.204033,126.223579 65.111198,126.186867 65.677612,126.067879 
	C65.847893,125.729439 66.018173,125.390999 66.636894,124.819740 
	C66.808243,124.354309 66.979599,123.888878 67.631432,123.087990 
	C67.763664,122.729660 67.895897,122.371330 68.004745,122.003906 
	C68.004745,122.003906 68.022064,122.029594 68.573044,121.633957 
	C70.400261,118.119827 72.227470,114.605705 74.854027,111.055206 
	C79.246262,110.814529 83.638489,110.573853 88.266304,110.667877 
	C88.266304,110.667877 88.673111,110.713028 89.040253,111.091843 
	C89.632492,111.454384 90.224724,111.816925 90.980194,112.659866 
	C91.259666,112.835030 91.539139,113.010193 91.920242,113.880486 
	C93.451492,116.264336 94.982742,118.648186 96.700226,121.652222 
	C100.744881,128.488052 104.789536,135.323898 108.967354,142.835251 
	C116.482132,153.487015 125.887695,155.816986 138.745117,150.010101 
	C139.351028,149.546356 139.956955,149.082611 141.118423,148.293594 
	C142.465912,146.673721 143.813416,145.053864 145.698181,143.092178 
	C145.965607,142.522476 146.233032,141.952759 146.519302,141.357330 
	C146.519302,141.357330 146.547943,141.380005 147.030411,140.935211 
	C150.054688,135.644363 153.078964,130.353516 156.019791,125.036636 
	C156.019791,125.036636 156.057404,125.115547 156.337204,124.878616 
	C156.409515,124.646210 156.457092,124.408852 157.010574,123.661964 
	C158.040680,121.815857 159.070786,119.969757 160.088226,118.082115 
	C160.088226,118.082115 160.063599,118.107315 160.585342,117.943550 
	C160.709061,117.637390 160.832779,117.331223 161.239304,116.548134 
	C161.517624,116.079399 161.795959,115.610672 162.717148,114.822037 
	C164.790863,110.550659 166.864594,106.279289 169.311081,101.261742 
	C169.533569,98.826462 169.756058,96.391174 170.386414,93.461716 
	C169.368546,85.076797 164.894119,79.025803 158.378967,77.658707 
	C155.244095,77.447838 152.109207,77.236969 148.507553,76.880280 
	C148.507553,76.880280 148.040649,77.025665 147.382294,76.662537 
	C145.853531,76.612778 144.109482,76.061630 142.836731,76.608101 
	C139.150848,78.190720 135.654388,80.214455 131.203247,82.037659 
	C129.175461,81.959366 127.147682,81.881081 124.706406,81.310112 
	C123.158607,80.168854 121.610809,79.027588 120.019180,77.442009 
	C120.019180,77.442009 119.807648,77.048820 119.758820,76.386528 
	C118.218124,74.546021 116.677422,72.705505 115.144516,70.239174 
	C115.078583,69.827065 115.012657,69.414948 114.874275,68.496590 
	C114.614883,68.293434 114.355484,68.090286 114.123566,67.853256 
	C114.123566,67.853256 114.151093,67.818161 114.094574,67.102074 
	C112.123428,63.678310 110.152283,60.254551 108.009964,56.157108 
	C106.374138,53.405689 104.738319,50.654270 103.010361,47.287693 
	C102.397453,46.471840 101.784554,45.655987 101.028603,44.237762 
	C100.372269,43.472221 99.715927,42.706684 98.880486,41.479790 
	C98.692017,41.185661 98.427574,40.999363 97.900551,40.465965 
M184.164154,72.248665 
	C184.164154,72.248665 184.246368,72.330467 184.807587,72.212814 
	C185.185349,71.810440 185.563110,71.408073 186.005188,71.007881 
	C186.005188,71.007881 186.003967,70.943535 186.608932,70.686188 
	C188.021500,68.455307 189.434082,66.224426 191.279846,63.401485 
	C191.798279,61.285194 192.316711,59.168903 193.008514,56.244682 
	C192.952118,55.148647 192.895706,54.052608 192.931305,52.234638 
	C191.965057,49.822952 190.998825,47.411266 190.074402,44.295971 
	C187.000916,41.537502 183.927414,38.779034 180.310684,35.521618 
	C176.861649,35.035179 173.412628,34.548740 169.219833,33.945992 
	C168.293533,34.250729 167.367218,34.555466 166.231918,34.721569 
	C166.231918,34.721569 166.029327,34.869408 165.273438,34.864212 
	C162.159210,36.895710 159.044983,38.927204 155.514343,41.190434 
	C155.245331,41.406654 155.119873,41.687080 154.560822,42.387302 
	C153.413376,44.587677 152.265930,46.788052 150.894485,49.748508 
	C150.636993,51.492607 150.379517,53.236706 149.966965,55.731491 
	C150.021347,56.491318 150.075729,57.251144 149.983459,58.779182 
	C152.310471,73.412315 167.253677,80.009674 176.997864,76.004776 
	C176.997864,76.004776 177.009293,75.999687 177.663757,76.046814 
	C178.442566,75.686005 179.221359,75.325203 180.616058,74.952454 
	C181.453140,74.387497 182.290207,73.822540 183.657867,73.101936 
	C183.865097,72.813721 184.072342,72.525513 184.164154,72.248665 
z"/>
<path fill="#7ED9EC" opacity="1.000000" stroke="none" 
	d="
M63.224556,46.103905 
	C63.944344,44.809540 64.664131,43.515175 65.863258,42.417862 
	C67.179947,43.065048 67.992691,43.847771 68.858612,43.911846 
	C74.898788,44.358810 80.949966,44.656940 87.034309,45.357941 
	C89.828163,48.795719 92.174591,52.466888 95.475456,54.770386 
	C98.011497,56.540165 99.226547,58.114765 98.856537,61.301826 
	C95.468407,64.706345 98.896622,66.652702 99.877052,69.292953 
	C99.497948,70.367767 99.241493,71.153038 98.760117,71.976929 
	C98.535194,72.015541 98.079895,72.047409 97.688065,72.026344 
	C95.867264,70.511871 94.151588,69.197685 93.078835,67.481598 
	C91.598396,65.113335 91.117836,61.955460 89.281670,60.011875 
	C86.372559,56.932587 82.782036,54.456238 79.291794,51.990990 
	C78.206810,51.224640 76.403503,50.824451 75.116928,51.108276 
	C69.868454,52.266125 66.352814,49.745827 63.224556,46.103905 
z"/>
<path fill="#64C6D9" opacity="1.000000" stroke="none" 
	d="
M51.141159,67.045891 
	C52.571236,64.490814 54.001320,61.935734 56.066917,59.227013 
	C59.168682,60.476269 61.355022,61.818630 64.431892,59.653763 
	C65.589752,58.839108 68.669121,59.643398 70.212097,60.686512 
	C75.958572,64.571388 81.430771,68.861984 87.004875,73.333527 
	C87.002556,74.111076 87.001282,74.555382 86.711136,75.277107 
	C86.269615,77.799377 86.116959,80.044235 85.938828,82.663857 
	C87.949112,82.790939 89.386955,82.881828 90.748474,83.273293 
	C90.385307,84.346931 90.098473,85.120003 89.624008,86.016220 
	C89.212585,86.349800 89.057289,86.602371 88.681595,87.054375 
	C87.317757,88.596153 86.242805,89.980614 85.027985,91.045013 
	C83.590134,89.483078 82.292175,88.241203 80.996124,86.666519 
	C81.000107,85.889931 81.002159,85.446167 81.285851,84.789230 
	C84.111900,81.272110 82.850517,78.783333 79.938896,76.545441 
	C75.488800,73.125069 70.909531,69.840416 66.723091,66.118027 
	C62.145344,62.047707 62.116211,61.877964 57.687084,67.153519 
	C55.337154,68.707703 53.496426,72.215256 50.923607,67.913406 
	C50.923607,67.913406 50.971291,67.992775 51.105453,67.922867 
	C51.328903,67.773651 51.507454,67.653053 51.492977,67.621765 
	C51.399136,67.418968 51.263264,67.235611 51.141159,67.045891 
z"/>
<path fill="#3274DA" opacity="1.000000" stroke="none" 
	d="
M22.735376,115.870529 
	C24.310431,113.047157 25.885487,110.223785 28.030277,107.345314 
	C36.106216,113.022270 43.443928,118.997894 51.202541,124.365074 
	C54.254822,126.476555 55.427567,128.474136 53.872253,131.651627 
	C51.682735,136.124817 52.743908,138.855209 57.671104,139.942673 
	C56.992760,141.217270 56.314415,142.491882 55.327621,143.892365 
	C55.019169,144.018250 54.876190,143.922089 54.691639,143.649017 
	C53.004822,141.583755 51.502556,139.791565 50.139572,137.677795 
	C52.091255,133.891479 49.145832,132.706528 47.205326,131.143127 
	C45.559948,129.817520 43.740990,128.707230 41.997429,127.503685 
	C35.813026,123.234787 30.806757,117.014984 22.735376,115.870529 
z"/>
<path fill="#71D1E6" opacity="1.000000" stroke="none" 
	d="
M87.000000,74.999695 
	C87.001282,74.555382 87.002556,74.111076 87.343422,73.281494 
	C87.732040,71.716980 88.310669,69.990105 87.746712,69.444695 
	C83.032158,64.885254 78.196205,60.437534 73.176666,56.218067 
	C72.080315,55.296471 69.540421,54.592678 68.626877,55.210449 
	C64.486832,58.010090 62.051449,55.003868 59.223076,53.063160 
	C60.416435,50.920742 61.609795,48.778320 63.013855,46.369904 
	C66.352814,49.745827 69.868454,52.266125 75.116928,51.108276 
	C76.403503,50.824451 78.206810,51.224640 79.291794,51.990990 
	C82.782036,54.456238 86.372559,56.932587 89.281670,60.011875 
	C91.117836,61.955460 91.598396,65.113335 93.078835,67.481598 
	C94.151588,69.197685 95.867264,70.511871 97.538803,72.318588 
	C96.244247,74.432159 94.707123,76.232414 93.103806,78.272217 
	C93.037605,78.511765 92.915878,78.993225 92.629921,78.841339 
	C90.562645,77.459541 88.781319,76.229622 87.000000,74.999695 
z"/>
<path fill="#56B9D2" opacity="1.000000" stroke="none" 
	d="
M50.628029,68.079895 
	C53.496426,72.215256 55.337154,68.707703 58.055138,67.193161 
	C60.114540,68.111023 61.574898,69.055222 62.848011,70.206474 
	C63.821224,71.086540 64.403046,72.427826 65.425301,73.220474 
	C70.570213,77.209770 75.802567,81.086288 81.004219,85.002403 
	C81.002159,85.446167 81.000107,85.889931 80.661957,86.714249 
	C79.251923,88.579460 78.177963,90.064117 77.295303,91.284317 
	C79.277855,93.337044 80.732620,94.843292 82.157867,96.673355 
	C82.069214,97.654182 82.010101,98.311195 81.726685,99.006653 
	C81.502380,99.045097 81.062744,99.165298 80.816147,98.856567 
	C78.712967,98.365639 76.856377,98.183434 75.007645,97.602135 
	C76.796806,92.558403 75.832237,89.314835 71.291290,86.405792 
	C65.114243,82.448624 59.535637,77.557289 53.060497,72.574097 
	C51.688244,74.065018 50.342010,75.527672 48.640762,77.032166 
	C47.518799,78.370384 46.751842,79.666756 45.664394,80.994759 
	C44.561794,81.683128 43.779686,82.339859 42.786659,83.000565 
	C42.575733,83.004547 42.153812,83.006805 42.153812,83.006805 
	C44.880024,78.086662 47.606236,73.166527 50.628029,68.079895 
z"/>
<path fill="#3B87D7" opacity="1.000000" stroke="none" 
	d="
M65.242058,126.315903 
	C63.739300,129.194962 62.236538,132.074020 60.401543,134.764282 
	C59.140369,131.065247 55.600170,127.994087 58.544071,123.747711 
	C58.910652,123.218948 57.277020,120.763855 56.088734,119.787109 
	C49.855141,114.663239 43.557209,109.605087 37.066631,104.815460 
	C35.485703,103.648827 33.094940,103.579628 31.076536,103.005844 
	C31.812035,101.114586 32.547531,99.223335 33.970062,97.153229 
	C36.817215,97.862030 39.201466,98.417290 41.097828,99.696068 
	C48.480892,104.674675 55.709202,109.882774 62.935654,115.360550 
	C58.433285,122.786507 59.886890,126.004150 65.242058,126.315903 
z"/>
<path fill="#377DD9" opacity="1.000000" stroke="none" 
	d="
M30.857433,103.252647 
	C33.094940,103.579628 35.485703,103.648827 37.066631,104.815460 
	C43.557209,109.605087 49.855141,114.663239 56.088734,119.787109 
	C57.277020,120.763855 58.910652,123.218948 58.544071,123.747711 
	C55.600170,127.994087 59.140369,131.065247 60.125061,134.975464 
	C60.180820,135.375473 60.145325,135.742905 59.815323,136.009323 
	C59.234993,136.514175 59.106934,136.806259 59.101139,137.151978 
	C59.101139,137.151978 59.078186,137.062546 58.836571,137.207214 
	C58.414524,137.941132 58.234089,138.530380 58.053650,139.119629 
	C58.053650,139.119629 57.987747,139.589478 57.829426,139.766083 
	C52.743908,138.855209 51.682735,136.124817 53.872253,131.651627 
	C55.427567,128.474136 54.254822,126.476555 51.202541,124.365074 
	C43.443928,118.997894 36.106216,113.022270 28.298218,107.139740 
	C28.877056,105.825989 29.757692,104.662720 30.857433,103.252647 
z"/>
<path fill="#2C69DC" opacity="1.000000" stroke="none" 
	d="
M22.461937,116.061722 
	C30.806757,117.014984 35.813026,123.234787 41.997429,127.503685 
	C43.740990,128.707230 45.559948,129.817520 47.205326,131.143127 
	C49.145832,132.706528 52.091255,133.891479 49.880005,137.879120 
	C48.655861,139.269211 47.830563,140.136398 46.692154,140.866440 
	C43.741123,138.808121 41.189613,136.752289 38.447746,134.993134 
	C32.277687,131.034470 27.874731,124.349045 19.699547,122.987015 
	C19.185602,122.944901 18.980169,122.926315 18.774736,122.907730 
	C19.912657,120.689461 21.050577,118.471184 22.461937,116.061722 
z"/>
<path fill="#4091D6" opacity="1.000000" stroke="none" 
	d="
M62.995087,115.005501 
	C55.709202,109.882774 48.480892,104.674675 41.097828,99.696068 
	C39.201466,98.417290 36.817215,97.862030 34.246315,96.953522 
	C35.011181,94.740570 36.186829,92.548492 38.003143,90.206284 
	C40.867188,91.003830 43.373398,91.569191 45.263477,92.967407 
	C52.287991,98.163971 59.109840,103.634499 65.867294,109.322296 
	C65.484222,110.762245 65.241653,111.882057 64.732086,113.121384 
	C63.975086,113.829109 63.485085,114.417305 62.995087,115.005501 
z"/>
<path fill="#459CD5" opacity="1.000000" stroke="none" 
	d="
M66.007790,109.002151 
	C59.109840,103.634499 52.287991,98.163971 45.263477,92.967407 
	C43.373398,91.569191 40.867188,91.003830 38.271744,90.005989 
	C39.206440,87.839890 40.513199,85.723961 41.986885,83.307419 
	C42.153812,83.006805 42.575733,83.004547 42.996056,83.264969 
	C51.574932,89.367729 59.771133,95.159348 67.828468,101.138100 
	C68.560333,101.681168 68.602951,103.427132 68.601830,104.614151 
	C68.600449,106.075981 68.217285,107.537453 67.667175,108.999939 
	C66.892754,109.001236 66.450272,109.001694 66.007790,109.002151 
z"/>
<path fill="#6FE0EE" opacity="1.000000" stroke="none" 
	d="
M86.997627,45.002747 
	C80.949966,44.656940 74.898788,44.358810 68.858612,43.911846 
	C67.992691,43.847771 67.179947,43.065048 66.145126,42.259369 
	C67.322083,40.602844 68.696503,39.301868 70.673386,37.893394 
	C71.508598,37.494061 71.741348,37.202225 71.974098,36.910393 
	C73.052475,36.584343 74.130844,36.258289 76.038803,35.968788 
	C79.681801,36.003933 82.566406,35.616653 85.286957,36.118568 
	C87.624023,36.549732 89.773689,37.996719 91.999748,39.358334 
	C90.328056,41.482349 88.662842,43.242546 86.997627,45.002747 
z"/>
<path fill="#7702E4" opacity="1.000000" stroke="none" 
	d="
M160.100891,118.123657 
	C159.070786,119.969757 158.040680,121.815857 156.636353,124.050262 
	C156.141281,124.648270 156.073044,124.873940 156.057404,125.115547 
	C156.057404,125.115547 156.019791,125.036636 155.729553,125.049774 
	C154.622467,125.709015 153.805603,126.355118 152.594055,127.000069 
	C149.287750,125.654198 146.296463,124.456825 143.481277,122.933876 
	C137.753311,119.835190 132.261505,116.408981 128.808701,110.557304 
	C128.566910,110.147507 127.595497,110.168221 126.972855,109.591423 
	C126.994904,108.134323 127.007462,107.074532 127.318939,105.859467 
	C129.405380,103.797264 131.192902,101.890350 132.986603,100.433762 
	C133.560379,103.824272 133.772156,109.153618 134.755814,109.300110 
	C139.576447,110.018044 139.728729,113.795570 141.603424,116.747368 
	C143.353638,119.503120 146.379395,123.199318 148.912094,123.252960 
	C151.903473,123.316322 154.968246,119.914207 158.352158,118.012115 
	C159.169022,118.047745 159.634964,118.085701 160.100891,118.123657 
z"/>
<path fill="#3F59DE" opacity="1.000000" stroke="none" 
	d="
M18.517372,123.081039 
	C18.980169,122.926315 19.185602,122.944901 19.700623,123.354721 
	C20.706854,124.984703 21.123915,126.559700 22.144766,127.408546 
	C29.699389,133.690277 37.374203,139.827454 45.009758,146.408783 
	C45.006599,147.870773 45.004917,148.934052 44.628067,149.997894 
	C43.502747,149.999374 42.752594,150.000305 41.853523,149.697327 
	C35.016819,144.050934 28.250763,138.802017 21.686741,133.311554 
	C19.592712,131.560013 18.034832,129.167496 16.231625,127.068268 
	C16.907753,125.796959 17.583883,124.525658 18.517372,123.081039 
z"/>
<path fill="#693BE1" opacity="1.000000" stroke="none" 
	d="
M9.443148,150.191635 
	C9.285995,147.737900 9.128840,145.284149 9.425643,142.465118 
	C11.719572,142.762360 13.804882,143.071793 15.356318,144.149643 
	C21.507479,148.423187 27.651030,152.742218 33.442104,157.478775 
	C35.213699,158.927795 35.847904,161.767395 36.659325,164.014160 
	C35.217880,164.373337 34.120094,164.688568 32.865669,164.705261 
	C27.243460,160.208969 21.544226,156.273026 16.416353,151.696854 
	C14.049030,149.584229 12.096663,149.191376 9.443148,150.191635 
z"/>
<path fill="#7838E0" opacity="1.000000" stroke="none" 
	d="
M9.534296,150.560623 
	C12.096663,149.191376 14.049030,149.584229 16.416353,151.696854 
	C21.544226,156.273026 27.243460,160.208969 32.859238,164.956543 
	C33.015285,165.673843 33.021130,165.841324 33.026970,166.008820 
	C22.534943,167.910492 13.249696,161.927368 9.534296,150.560623 
z"/>
<path fill="#8D26C9" opacity="1.000000" stroke="none" 
	d="
M183.127274,73.257584 
	C182.290207,73.822540 181.453140,74.387497 180.349670,74.591438 
	C179.877045,72.850792 180.135513,70.669464 179.382568,70.233017 
	C176.429855,68.521446 173.158142,67.360229 169.837372,65.750031 
	C169.115616,65.334381 168.561417,65.163269 167.954926,64.652458 
	C164.268845,62.207920 160.635025,60.103085 156.839539,57.685894 
	C154.492599,56.575962 152.307312,55.778385 150.122025,54.980804 
	C150.379517,53.236706 150.636993,51.492607 151.366241,49.371857 
	C152.557693,48.993912 153.277405,48.992615 154.137009,49.311409 
	C156.900513,51.640045 159.340134,53.976768 162.193161,55.576004 
	C165.958679,57.686737 170.048416,59.219040 174.159393,61.308220 
	C178.214996,63.738876 182.109985,65.861305 186.005524,68.354004 
	C186.005371,69.464020 186.004669,70.203773 186.003967,70.943535 
	C186.003967,70.943535 186.005188,71.007881 185.666565,71.031921 
	C184.967422,71.480789 184.606903,71.905632 184.246368,72.330467 
	C184.246368,72.330467 184.164154,72.248665 183.936279,72.285522 
	C183.514694,72.634109 183.320984,72.945847 183.127274,73.257584 
z"/>
<path fill="#6DCCDF" opacity="1.000000" stroke="none" 
	d="
M59.006107,53.328594 
	C62.051449,55.003868 64.486832,58.010090 68.626877,55.210449 
	C69.540421,54.592678 72.080315,55.296471 73.176666,56.218067 
	C78.196205,60.437534 83.032158,64.885254 87.746712,69.444695 
	C88.310669,69.990105 87.732040,71.716980 87.344460,72.948257 
	C81.430771,68.861984 75.958572,64.571388 70.212097,60.686512 
	C68.669121,59.643398 65.589752,58.839108 64.431892,59.653763 
	C61.355022,61.818630 59.168682,60.476269 56.332130,59.024956 
	C56.904266,57.182373 57.846703,55.388199 59.006107,53.328594 
z"/>
<path fill="#5E44E1" opacity="1.000000" stroke="none" 
	d="
M37.002975,163.970184 
	C35.847904,161.767395 35.213699,158.927795 33.442104,157.478775 
	C27.651030,152.742218 21.507479,148.423187 15.356318,144.149643 
	C13.804882,143.071793 11.719572,142.762360 9.514032,142.049561 
	C9.795140,139.918564 10.441814,137.837799 11.494468,135.847504 
	C17.032782,140.007904 22.139048,144.111298 27.306026,148.136749 
	C31.164690,151.142914 35.101746,154.048431 39.001884,156.999390 
	C38.999874,157.000000 39.001118,156.996445 38.999908,157.396790 
	C39.001514,158.864456 39.004322,159.931763 38.981068,161.319519 
	C38.304325,162.416702 37.653652,163.193436 37.002975,163.970184 
z"/>
<path fill="#544BE0" opacity="1.000000" stroke="none" 
	d="
M39.003899,156.998779 
	C35.101746,154.048431 31.164690,151.142914 27.306026,148.136749 
	C22.139048,144.111298 17.032782,140.007904 11.729455,135.558136 
	C11.717324,134.814331 11.876186,134.450348 12.521824,133.944458 
	C13.788008,133.700897 14.842056,133.220032 15.305062,133.555328 
	C20.989029,137.671494 26.856407,141.602051 32.095463,146.237183 
	C34.823647,148.650894 40.389805,148.432495 39.737179,154.219299 
	C39.319679,155.282547 39.161789,156.140671 39.003899,156.998779 
z"/>
<path fill="#A016C3" opacity="1.000000" stroke="none" 
	d="
M168.007202,64.992157 
	C168.561417,65.163269 169.115616,65.334381 169.872070,66.097214 
	C171.072586,67.681953 172.230240,68.561699 173.034210,69.692825 
	C174.471680,71.715187 175.695923,73.889114 177.009293,75.999687 
	C177.009293,75.999687 176.997864,76.004776 176.635284,75.964844 
	C173.494659,74.777069 170.354340,74.119431 168.008942,72.386131 
	C161.864136,67.845016 156.066254,62.834446 150.130112,58.010971 
	C150.075729,57.251144 150.021347,56.491318 150.044495,55.356148 
	C152.307312,55.778385 154.492599,56.575962 156.878113,58.045952 
	C160.721298,60.809631 164.364258,62.900894 168.007202,64.992157 
z"/>
<path fill="#AD14B8" opacity="1.000000" stroke="none" 
	d="
M150.056793,58.395081 
	C156.066254,62.834446 161.864136,67.845016 168.008942,72.386131 
	C170.354340,74.119431 173.494659,74.777069 176.629059,75.963058 
	C167.253677,80.009674 152.310471,73.412315 150.056793,58.395081 
z"/>
<path fill="#4B51DE" opacity="1.000000" stroke="none" 
	d="
M39.996788,154.014145 
	C40.389805,148.432495 34.823647,148.650894 32.095463,146.237183 
	C26.856407,141.602051 20.989029,137.671494 15.305062,133.555328 
	C14.842056,133.220032 13.788008,133.700897 12.684203,133.822983 
	C13.499492,131.761902 14.639175,129.680359 16.005243,127.333542 
	C18.034832,129.167496 19.592712,131.560013 21.686741,133.311554 
	C28.250763,138.802017 35.016819,144.050934 41.852936,150.097961 
	C41.999332,151.871536 41.997402,152.940582 41.662369,154.009399 
	C40.885109,154.010834 40.440948,154.012482 39.996788,154.014145 
z"/>
<path fill="#89DBEC" opacity="1.000000" stroke="none" 
	d="
M99.999702,69.003410 
	C98.896622,66.652702 95.468407,64.706345 99.207008,61.265461 
	C101.069695,60.057350 102.437523,59.183472 103.806480,58.308865 
	C104.817513,59.240120 105.777229,60.124111 107.434723,61.650829 
	C107.669701,59.507755 107.803963,58.283203 107.998688,57.001404 
	C108.059151,56.944157 108.181129,56.830791 108.181129,56.830791 
	C110.152283,60.254551 112.123428,63.678310 113.707474,67.523254 
	C108.880142,68.297432 104.439926,68.650421 99.999702,69.003410 
z"/>
<path fill="#9001E5" opacity="1.000000" stroke="none" 
	d="
M160.094559,118.102890 
	C159.634964,118.085701 159.169022,118.047745 157.972794,118.049217 
	C153.215851,120.026787 148.748123,121.732956 145.430252,117.687431 
	C140.334244,111.473808 139.933640,103.707748 140.104309,95.780502 
	C140.410400,95.287415 140.670593,95.099251 141.002106,95.391846 
	C141.681091,98.804741 142.165497,101.880295 143.079727,104.822289 
	C143.799850,107.139656 144.539978,109.837730 146.191833,111.381859 
	C148.312119,113.363861 151.223419,114.986816 154.042084,115.574684 
	C156.155182,116.015419 158.660110,114.577446 161.228851,114.110413 
	C161.669495,114.543915 161.871887,114.842926 162.074280,115.141937 
	C161.795959,115.610672 161.517624,116.079399 160.883728,116.905098 
	C160.271423,117.487808 160.116577,117.769562 160.063599,118.107315 
	C160.063599,118.107315 160.088226,118.082115 160.094559,118.102890 
z"/>
<path fill="#5C4FDF" opacity="1.000000" stroke="none" 
	d="
M192.839310,52.956573 
	C192.895706,54.052608 192.952118,55.148647 192.681854,56.841839 
	C191.572311,57.748932 190.461792,58.556953 190.057648,58.291111 
	C186.356995,55.856823 182.895401,53.045113 179.119965,50.743969 
	C176.983734,49.441925 174.390854,48.889076 172.001709,47.748619 
	C171.997070,47.331692 171.994354,47.164925 171.988464,46.625484 
	C170.868439,44.847538 169.785934,43.413094 168.625061,42.045166 
	C167.453568,40.664730 166.204315,39.350285 165.350037,38.043686 
	C168.474106,39.054764 171.237289,40.029095 174.052521,41.343689 
	C178.668594,48.235085 186.093811,50.030991 192.839310,52.956573 
z"/>
<path fill="#6F45DB" opacity="1.000000" stroke="none" 
	d="
M172.003662,47.998779 
	C174.390854,48.889076 176.983734,49.441925 179.119965,50.743969 
	C182.895401,53.045113 186.356995,55.856823 190.057648,58.291111 
	C190.461792,58.556953 191.572311,57.748932 192.595169,57.245804 
	C192.316711,59.168903 191.798279,61.285194 190.683319,63.698273 
	C189.178177,63.742867 188.136826,63.695187 187.382355,63.205505 
	C182.222244,59.856304 177.122360,56.414330 172.000916,52.752422 
	C171.998795,52.502583 171.995117,52.002899 171.997009,51.602428 
	C172.000473,50.134232 172.002060,49.066505 172.003662,47.998779 
z"/>
<path fill="#7B06A7" opacity="1.000000" stroke="none" 
	d="
M132.083572,82.065056 
	C135.654388,80.214455 139.150848,78.190720 142.836731,76.608101 
	C144.109482,76.061630 145.853531,76.612778 147.562195,77.145630 
	C146.145325,80.058083 144.548523,82.487442 142.622528,84.969299 
	C140.857391,86.343140 139.421463,87.664474 137.615906,88.993942 
	C135.933578,89.156921 134.620911,89.311775 134.266830,89.353546 
	C133.393005,86.836166 132.732513,84.933411 132.048889,82.788940 
	C132.025742,82.547226 132.083572,82.065056 132.083572,82.065056 
z"/>
<path fill="#24B7EC" opacity="1.000000" stroke="none" 
	d="
M115.136726,70.864998 
	C116.677422,72.705505 118.218124,74.546021 119.442947,76.880653 
	C113.752525,78.578117 108.377975,79.781464 103.001373,80.590256 
	C102.665382,78.170441 102.331451,76.145180 102.408447,74.081345 
	C106.925163,72.983513 111.030945,71.924255 115.136726,70.864998 
z"/>
<path fill="#4D5AE3" opacity="1.000000" stroke="none" 
	d="
M192.885315,52.595604 
	C186.093811,50.030991 178.668594,48.235085 174.260178,41.092712 
	C175.944778,40.665226 177.473801,40.828979 179.375336,40.998886 
	C183.176102,42.336548 186.604355,43.668060 190.032593,44.999573 
	C190.998825,47.411266 191.965057,49.822952 192.885315,52.595604 
z"/>
<path fill="#1F8CED" opacity="1.000000" stroke="none" 
	d="
M120.063004,77.886322 
	C121.610809,79.027588 123.158607,80.168854 124.708557,81.864632 
	C119.809135,84.615921 114.907570,86.812691 109.630394,89.005882 
	C108.503868,89.002693 107.752960,89.003082 106.667374,89.001999 
	C105.886436,88.999741 105.440163,88.998955 104.995628,88.623779 
	C105.000175,87.500710 105.002983,86.752029 105.383698,85.960083 
	C110.528740,83.239983 115.295876,80.563156 120.063004,77.886322 
z"/>
<path fill="#3833D3" opacity="1.000000" stroke="none" 
	d="
M96.513992,121.032036 
	C94.982742,118.648186 93.451492,116.264336 91.930862,113.467941 
	C91.941475,113.055397 92.057571,112.919350 92.434250,112.947250 
	C97.205055,112.317062 101.599167,111.658966 105.950211,111.387390 
	C105.429283,115.464027 104.017769,118.656555 100.748398,120.996979 
	C100.501625,121.003502 100.008293,121.022972 99.658417,121.012726 
	C98.377029,121.012329 97.445503,121.022179 96.513992,121.032036 
z"/>
<path fill="#19A1E9" opacity="1.000000" stroke="none" 
	d="
M120.041092,77.664169 
	C115.295876,80.563156 110.528740,83.239983 105.026184,85.955231 
	C102.859291,85.327370 101.427834,84.661095 100.169205,83.738632 
	C101.229164,82.649910 102.116302,81.817360 103.003433,80.984802 
	C108.377975,79.781464 113.752525,78.578117 119.467361,77.211800 
	C119.807648,77.048820 120.019180,77.442009 120.041092,77.664169 
z"/>
<path fill="#4656DE" opacity="1.000000" stroke="none" 
	d="
M179.002808,40.992733 
	C177.473801,40.828979 175.944778,40.665226 174.208130,40.752449 
	C171.237289,40.029095 168.474106,39.054764 165.381393,37.711624 
	C165.377686,36.518341 165.703506,35.693874 166.029327,34.869408 
	C166.029327,34.869408 166.231918,34.721569 166.725189,34.823288 
	C168.133514,34.637440 169.048553,34.349869 169.963593,34.062302 
	C173.412628,34.548740 176.861649,35.035179 180.252869,35.801395 
	C179.797623,37.718361 179.400223,39.355545 179.002808,40.992733 
z"/>
<path fill="#7736CD" opacity="1.000000" stroke="none" 
	d="
M171.995117,52.002899 
	C171.995117,52.002899 171.998795,52.502583 171.999542,53.126484 
	C171.999588,54.498650 171.998871,55.246918 171.609619,55.996170 
	C169.276581,55.283211 167.118637,54.892929 165.435303,53.782913 
	C162.585922,51.903999 159.969406,49.647724 157.380127,47.405594 
	C154.870712,45.232613 154.439163,47.008842 153.997101,48.991318 
	C153.277405,48.992615 152.557693,48.993912 151.478241,48.991817 
	C152.265930,46.788052 153.413376,44.587677 155.101761,42.421597 
	C161.093506,45.638226 166.544312,48.820564 171.995117,52.002899 
z"/>
<path fill="#5F48D5" opacity="1.000000" stroke="none" 
	d="
M165.651382,34.866810 
	C165.703506,35.693874 165.377686,36.518341 165.020508,37.674873 
	C166.204315,39.350285 167.453568,40.664730 168.625061,42.045166 
	C169.785934,43.413094 170.868439,44.847538 171.598099,46.626194 
	C168.563797,45.914928 165.926407,44.805717 163.266739,43.752853 
	C160.833954,42.789806 158.377029,41.887680 155.930756,40.958702 
	C159.044983,38.927204 162.159210,36.895710 165.651382,34.866810 
z"/>
<path fill="#6A39D6" opacity="1.000000" stroke="none" 
	d="
M155.722549,41.074570 
	C158.377029,41.887680 160.833954,42.789806 163.266739,43.752853 
	C165.926407,44.805717 168.563797,45.914928 171.601257,46.998863 
	C171.994354,47.164925 171.997070,47.331692 172.001709,47.748619 
	C172.002060,49.066505 172.000473,50.134232 171.997009,51.602432 
	C166.544312,48.820564 161.093506,45.638226 155.390320,42.243805 
	C155.119873,41.687080 155.245331,41.406654 155.722549,41.074570 
z"/>
<path fill="#2B59CE" opacity="1.000000" stroke="none" 
	d="
M88.030724,110.333168 
	C83.638489,110.573853 79.246262,110.814529 74.414032,110.794212 
	C73.939331,110.348274 73.904633,110.163338 74.030472,109.695023 
	C75.710716,107.909042 77.230438,106.406448 79.191376,104.936554 
	C82.420509,104.646065 85.208427,104.322876 88.329697,104.000526 
	C89.107384,104.003189 89.551704,104.005013 89.996460,104.380722 
	C89.996468,105.502289 89.996048,106.249977 89.646851,107.002838 
	C88.875633,108.116394 88.453178,109.224785 88.030724,110.333168 
z"/>
<path fill="#529CD7" opacity="1.000000" stroke="none" 
	d="
M73.869942,109.978401 
	C73.904633,110.163338 73.939331,110.348274 74.014359,110.812401 
	C72.227470,114.605705 70.400261,118.119827 68.279663,121.453964 
	C66.990540,118.516609 65.994812,115.759232 64.999084,113.001862 
	C65.241653,111.882057 65.484222,110.762245 65.867294,109.322296 
	C66.450272,109.001694 66.892754,109.001236 67.814751,109.294395 
	C69.530220,109.724930 70.766182,109.861855 72.313980,109.998306 
	C73.040535,109.991356 73.455238,109.984879 73.869942,109.978401 
z"/>
<path fill="#7D3DD3" opacity="1.000000" stroke="none" 
	d="
M171.998169,55.995182 
	C171.998871,55.246918 171.999588,54.498650 172.001678,53.376324 
	C177.122360,56.414330 182.222244,59.856304 187.382355,63.205505 
	C188.136826,63.695187 189.178177,63.742867 190.466721,63.994308 
	C189.434082,66.224426 188.021500,68.455307 186.306458,70.814865 
	C186.004669,70.203773 186.005371,69.464020 185.965057,67.989624 
	C184.192978,59.903702 177.120117,59.161644 172.000595,56.000999 
	C172.000000,55.999947 171.998169,55.995182 171.998169,55.995182 
z"/>
<path fill="#A201D1" opacity="1.000000" stroke="none" 
	d="
M142.951736,84.916809 
	C144.548523,82.487442 146.145325,80.058083 147.891388,77.327194 
	C148.040649,77.025665 148.507553,76.880280 148.755493,77.305084 
	C149.669571,78.487305 150.335693,79.244720 151.000885,80.418396 
	C151.001175,82.222290 151.002411,83.609924 150.757538,85.164551 
	C150.340942,85.887489 150.170471,86.443436 149.701706,87.019531 
	C148.934662,87.360161 148.465912,87.680641 147.640854,88.040306 
	C146.523224,89.386421 145.761917,90.693359 144.741867,91.892731 
	C143.990646,91.520172 143.498184,91.255180 143.003082,90.558868 
	C142.984222,88.390640 142.967972,86.653725 142.951736,84.916809 
z"/>
<path fill="#2977E7" opacity="1.000000" stroke="none" 
	d="
M110.006004,89.009460 
	C114.907570,86.812691 119.809135,84.615921 124.915298,82.110977 
	C127.147682,81.881081 129.175461,81.959366 131.643402,82.051361 
	C132.083572,82.065056 132.025742,82.547226 131.908356,83.026886 
	C131.721603,83.677315 131.652206,83.848099 131.235718,84.080261 
	C129.609009,84.436028 128.231201,84.520355 127.068138,85.064072 
	C123.527443,86.719284 118.800026,86.410667 116.646194,90.997833 
	C115.539131,91.333649 114.768250,91.666161 113.597496,91.998276 
	C112.130836,91.997055 111.064041,91.996239 109.998192,91.622055 
	C110.001427,90.502281 110.003716,89.755875 110.006004,89.009460 
z"/>
<path fill="#4790D7" opacity="1.000000" stroke="none" 
	d="
M64.732086,113.121384 
	C65.994812,115.759232 66.990540,118.516609 68.004166,121.651787 
	C68.022064,122.029594 68.004745,122.003906 67.765640,122.165512 
	C67.401337,122.692558 67.276146,123.058006 67.150955,123.423447 
	C66.979599,123.888878 66.808243,124.354309 66.154343,125.039001 
	C65.484924,125.567795 65.298065,125.877327 65.111198,126.186867 
	C65.111198,126.186867 65.204033,126.223579 65.223045,126.269745 
	C59.886890,126.004150 58.433285,122.786507 62.935658,115.360550 
	C63.485085,114.417305 63.975086,113.829109 64.732086,113.121384 
z"/>
<path fill="#3D10D6" opacity="1.000000" stroke="none" 
	d="
M138.166901,150.068634 
	C125.887695,155.816986 116.482132,153.487015 108.979919,142.420502 
	C108.992477,142.005737 109.150368,141.851303 109.476845,141.945251 
	C114.479858,145.153946 119.026085,148.498352 123.900703,151.263947 
	C125.706810,152.288635 128.648453,153.600525 130.443268,150.010971 
	C132.574585,149.997650 134.279984,149.988159 136.349182,149.988815 
	C137.197632,150.022202 137.682266,150.045410 138.166901,150.068634 
z"/>
<path fill="#625CD4" opacity="1.000000" stroke="none" 
	d="
M39.737179,154.219299 
	C40.440948,154.012482 40.885109,154.010834 41.668930,154.374207 
	C43.782043,160.305908 46.019077,153.868332 48.204224,154.975845 
	C48.443466,154.982422 48.921921,154.996552 48.921921,154.996552 
	C45.855186,161.381882 40.681156,164.897415 33.416458,166.052521 
	C33.021130,165.841324 33.015285,165.673843 33.015877,165.255081 
	C34.120094,164.688568 35.217880,164.373337 36.659325,164.014160 
	C37.653652,163.193436 38.304325,162.416702 39.311157,161.272583 
	C39.445251,159.602295 39.223183,158.299362 39.001118,156.996445 
	C39.001118,156.996445 38.999874,157.000000 39.001884,156.999390 
	C39.161789,156.140671 39.319679,155.282547 39.737179,154.219299 
z"/>
<path fill="#71D1E6" opacity="1.000000" stroke="none" 
	d="
M115.140625,70.552086 
	C111.030945,71.924255 106.925163,72.983513 102.141953,73.918304 
	C100.638023,73.175323 99.811531,72.556816 98.985031,71.938309 
	C99.241493,71.153038 99.497948,70.367767 99.877052,69.292953 
	C104.439926,68.650421 108.880142,68.297432 113.735733,67.881302 
	C114.151093,67.818161 114.123566,67.853256 114.168991,68.110718 
	C114.379425,68.671021 114.623520,68.882568 114.946732,69.002838 
	C115.012657,69.414948 115.078583,69.827065 115.140625,70.552086 
z"/>
<path fill="#AA01BC" opacity="1.000000" stroke="none" 
	d="
M151.001831,80.002136 
	C150.335693,79.244720 149.669571,78.487305 148.988892,77.377991 
	C152.109207,77.236969 155.244095,77.447838 158.849274,78.164230 
	C160.902679,80.763153 162.485779,82.856552 163.701111,84.933792 
	C159.222855,83.279129 155.112350,81.640633 151.001831,80.002136 
z"/>
<path fill="#304BDB" opacity="1.000000" stroke="none" 
	d="
M88.148514,110.500519 
	C88.453178,109.224785 88.875633,108.116394 89.838249,107.246559 
	C95.587914,105.992966 100.797409,104.500816 106.005493,103.399689 
	C106.147034,107.909134 102.818520,108.282257 100.102242,108.894951 
	C97.132080,109.564911 94.033890,109.667297 90.707306,109.912979 
	C89.839783,110.110283 89.256447,110.411652 88.673111,110.713028 
	C88.673111,110.713028 88.266304,110.667877 88.148514,110.500519 
z"/>
<path fill="#A201D1" opacity="1.000000" stroke="none" 
	d="
M162.395721,114.981987 
	C161.871887,114.842926 161.669495,114.543915 161.237244,113.748398 
	C161.666901,111.501060 162.326447,109.750244 162.989624,107.649101 
	C162.660736,106.200401 162.328232,105.102036 161.997528,103.628662 
	C162.000443,102.503807 162.001541,101.753937 162.261353,100.897148 
	C163.013168,100.527786 163.506271,100.265358 164.187958,100.269440 
	C165.576355,101.020081 166.776154,101.504204 168.216522,101.994217 
	C168.457092,102.000107 168.938309,102.007912 168.938324,102.007919 
	C166.864594,106.279289 164.790863,110.550659 162.395721,114.981987 
z"/>
<path fill="#4165E2" opacity="1.000000" stroke="none" 
	d="
M179.375336,40.998886 
	C179.400223,39.355545 179.797623,37.718361 180.524475,36.050865 
	C183.927414,38.779034 187.000916,41.537502 190.053497,44.647774 
	C186.604355,43.668060 183.176102,42.336548 179.375336,40.998886 
z"/>
<path fill="#5C0FD5" opacity="1.000000" stroke="none" 
	d="
M152.988739,127.001228 
	C153.805603,126.355118 154.622467,125.709015 155.771286,125.062790 
	C153.078964,130.353516 150.054688,135.644363 146.638290,140.776291 
	C146.165131,140.078506 146.084091,139.539627 146.004242,138.625854 
	C146.003418,137.501236 146.001404,136.751541 146.141312,135.680237 
	C147.857635,133.241516 149.432037,131.124390 151.272736,128.887634 
	C152.022247,128.179062 152.505493,127.590149 152.988739,127.001228 
z"/>
<path fill="#3D10D6" opacity="1.000000" stroke="none" 
	d="
M96.607101,121.342133 
	C97.445503,121.022179 98.377029,121.012329 99.656830,121.409363 
	C101.326431,124.211639 102.647751,126.607040 103.980637,129.379959 
	C105.711601,133.788757 107.430984,137.820023 109.150368,141.851303 
	C109.150368,141.851303 108.992477,142.005737 108.913338,142.082733 
	C104.789536,135.323898 100.744881,128.488052 96.607101,121.342133 
z"/>
<path fill="#4A69D7" opacity="1.000000" stroke="none" 
	d="
M49.165321,154.760925 
	C48.921921,154.996552 48.443466,154.982422 48.214859,154.610138 
	C46.991913,152.824341 45.997574,151.410828 45.003239,149.997314 
	C45.004917,148.934052 45.006599,147.870773 45.266998,146.299332 
	C46.017914,145.528046 46.510101,145.264938 47.296524,145.145401 
	C48.571053,146.103180 49.551342,146.917374 50.583130,147.774353 
	C51.727688,147.107925 52.794029,146.487030 53.910336,145.913162 
	C53.960300,145.960190 54.061344,146.053055 54.061344,146.053055 
	C52.510471,148.877136 50.959599,151.701218 49.165321,154.760925 
z"/>
<path fill="#AA01BC" opacity="1.000000" stroke="none" 
	d="
M169.124695,101.634827 
	C168.938309,102.007912 168.457092,102.000107 168.222397,101.630310 
	C167.662277,100.173569 167.336853,99.086624 166.981659,97.673706 
	C166.299026,96.233467 165.646149,95.119202 164.995392,93.598015 
	C165.329697,91.125702 165.661926,89.060318 166.307312,87.151581 
	C167.739853,89.524117 168.859207,91.740005 169.978546,93.955894 
	C169.756058,96.391174 169.533569,98.826462 169.124695,101.634827 
z"/>
<path fill="#961DC4" opacity="1.000000" stroke="none" 
	d="
M177.336517,76.023254 
	C175.695923,73.889114 174.471680,71.715187 173.034210,69.692825 
	C172.230240,68.561699 171.072586,67.681953 170.039612,66.341759 
	C173.158142,67.360229 176.429855,68.521446 179.382568,70.233017 
	C180.135513,70.669464 179.877045,72.850792 180.041718,74.597412 
	C179.221359,75.325203 178.442566,75.686005 177.336517,76.023254 
z"/>
<path fill="#4E0BDA" opacity="1.000000" stroke="none" 
	d="
M146.003052,139.000763 
	C146.084091,139.539627 146.165131,140.078506 146.397064,140.998688 
	C146.547943,141.380005 146.519302,141.357330 146.145386,141.410553 
	C145.567947,142.120514 145.364426,142.777252 145.160904,143.433990 
	C143.813416,145.053864 142.465912,146.673721 140.698761,148.285355 
	C140.279083,148.277115 139.965530,147.965500 139.977676,147.580475 
	C139.478271,145.022980 138.966721,142.850510 138.525604,140.977173 
	C141.123962,140.290375 143.563507,139.645569 146.003052,139.000763 
z"/>
<path fill="#89DBEC" opacity="1.000000" stroke="none" 
	d="
M92.006218,38.994514 
	C89.773689,37.996719 87.624023,36.549732 85.286957,36.118568 
	C82.566406,35.616653 79.681801,36.003933 76.398254,35.980087 
	C78.867783,33.161091 87.055336,33.021870 92.061371,35.764942 
	C93.360626,36.476868 94.512520,37.457714 95.873779,38.652206 
	C96.015450,38.989368 95.943451,39.075230 95.551132,39.051750 
	C94.107956,39.017021 93.057083,39.005768 92.006218,38.994514 
z"/>
<path fill="#9A19A5" opacity="1.000000" stroke="none" 
	d="
M170.182480,93.708801 
	C168.859207,91.740005 167.739853,89.524117 166.190170,86.887604 
	C165.196182,85.961304 164.632523,85.455627 164.068863,84.949951 
	C162.485779,82.856552 160.902679,80.763153 159.164398,78.372757 
	C164.894119,79.025803 169.368546,85.076797 170.182480,93.708801 
z"/>
<path fill="#89DBEC" opacity="1.000000" stroke="none" 
	d="
M103.102501,47.902855 
	C104.738319,50.654270 106.374138,53.405689 108.095551,56.493950 
	C108.181129,56.830791 108.059151,56.944157 107.647385,56.937561 
	C105.793091,53.982376 104.350563,51.033787 102.956688,48.039642 
	C103.005333,47.994087 103.102501,47.902851 103.102501,47.902855 
z"/>
<path fill="#4E0BDA" opacity="1.000000" stroke="none" 
	d="
M138.456009,150.039368 
	C137.682266,150.045410 137.197632,150.022202 136.465057,149.735748 
	C136.479187,148.982300 136.741257,148.492065 137.373978,148.002136 
	C138.484924,147.990112 139.225235,147.977798 139.965530,147.965500 
	C139.965530,147.965500 140.279083,148.277115 140.420975,148.447998 
	C139.956955,149.082611 139.351028,149.546356 138.456009,150.039368 
z"/>
<path fill="#3833D3" opacity="1.000000" stroke="none" 
	d="
M88.856682,110.902435 
	C89.256447,110.411652 89.839783,110.110283 90.715103,110.234230 
	C91.031097,111.087822 91.055107,111.516083 91.012024,112.001389 
	C90.944923,112.058426 90.816963,112.179466 90.816963,112.179466 
	C90.224724,111.816925 89.632492,111.454384 88.856682,110.902435 
z"/>
<path fill="#89DBEC" opacity="1.000000" stroke="none" 
	d="
M101.171646,44.840130 
	C101.784554,45.655987 102.397453,46.471840 103.056427,47.595272 
	C103.102501,47.902851 103.005333,47.994087 102.628944,47.954514 
	C101.812675,46.964218 101.372795,46.013493 100.992416,45.006901 
	C101.051903,44.951038 101.171646,44.840130 101.171646,44.840130 
z"/>
<path fill="#89DBEC" opacity="1.000000" stroke="none" 
	d="
M99.059586,41.941143 
	C99.715927,42.706684 100.372269,43.472221 101.100128,44.538948 
	C101.171646,44.840130 101.051903,44.951038 100.661591,44.930481 
	C99.816536,43.962967 99.361794,43.016006 98.945953,42.037994 
	C98.984856,42.006939 99.059586,41.941143 99.059586,41.941143 
z"/>
<path fill="#5F48D5" opacity="1.000000" stroke="none" 
	d="
M169.591705,34.004143 
	C169.048553,34.349869 168.133514,34.637440 166.829697,34.892609 
	C167.367218,34.555466 168.293533,34.250729 169.591705,34.004143 
z"/>
<path fill="#7D3DD3" opacity="1.000000" stroke="none" 
	d="
M184.526978,72.271637 
	C184.606903,71.905632 184.967422,71.480789 185.634415,71.030830 
	C185.563110,71.408073 185.185349,71.810440 184.526978,72.271637 
z"/>
<path fill="#3B87D7" opacity="1.000000" stroke="none" 
	d="
M58.302544,138.941864 
	C58.234089,138.530380 58.414524,137.941132 58.882557,137.211258 
	C58.963913,137.635117 58.757671,138.199600 58.302544,138.941864 
z"/>
<path fill="#4A69D7" opacity="1.000000" stroke="none" 
	d="
M55.077072,144.082047 
	C54.937798,144.675797 54.740620,145.205765 54.302391,145.894379 
	C54.061344,146.053055 53.960300,145.960190 53.973289,145.637848 
	C54.282917,144.851028 54.579556,144.386566 54.876190,143.922089 
	C54.876190,143.922089 55.019169,144.018250 55.077072,144.082047 
z"/>
<path fill="#5C0FD5" opacity="1.000000" stroke="none" 
	d="
M145.429535,143.263092 
	C145.364426,142.777252 145.567947,142.120514 146.135956,141.423416 
	C146.233032,141.952759 145.965607,142.522476 145.429535,143.263092 
z"/>
<path fill="#7ED9EC" opacity="1.000000" stroke="none" 
	d="
M71.713913,37.004784 
	C71.741348,37.202225 71.508598,37.494061 70.990799,37.844158 
	C70.955070,37.634670 71.204399,37.366920 71.713913,37.004784 
z"/>
<path fill="#89DBEC" opacity="1.000000" stroke="none" 
	d="
M96.053780,38.948502 
	C96.433922,38.978455 96.708725,39.154118 96.975967,39.701511 
	C97.035400,39.968410 96.950836,40.048428 96.743790,39.930252 
	C96.278923,39.614826 96.081154,39.369209 95.943451,39.075230 
	C95.943451,39.075230 96.015450,38.989368 96.053780,38.948502 
z"/>
<path fill="#89DBEC" opacity="1.000000" stroke="none" 
	d="
M114.910500,68.749710 
	C114.623520,68.882568 114.379425,68.671021 114.155258,68.127663 
	C114.355484,68.090286 114.614883,68.293434 114.910500,68.749710 
z"/>
<path fill="#89DBEC" opacity="1.000000" stroke="none" 
	d="
M97.078384,39.929153 
	C97.443008,39.998161 97.702736,40.190186 97.956955,40.727509 
	C98.013351,40.989052 97.941010,41.058769 97.732819,40.936554 
	C97.265602,40.609795 97.074341,40.354492 96.950836,40.048428 
	C96.950836,40.048428 97.035400,39.968410 97.078384,39.929153 
z"/>
<path fill="#89DBEC" opacity="1.000000" stroke="none" 
	d="
M98.050255,40.954971 
	C98.427574,40.999363 98.692017,41.185661 98.970032,41.710464 
	C99.059586,41.941143 98.984856,42.006939 98.746368,41.909897 
	C98.256065,41.608757 98.067101,41.357395 97.941010,41.058769 
	C97.941010,41.058769 98.013351,40.989052 98.050255,40.954971 
z"/>
<path fill="#3B87D7" opacity="1.000000" stroke="none" 
	d="
M59.338417,137.051620 
	C59.106934,136.806259 59.234993,136.514175 59.692009,136.146667 
	C59.791035,136.328812 59.683365,136.640030 59.338417,137.051620 
z"/>
<path fill="#56B9D2" opacity="1.000000" stroke="none" 
	d="
M51.022850,67.257874 
	C51.263264,67.235611 51.399136,67.418968 51.492977,67.621765 
	C51.507454,67.653053 51.328903,67.773651 51.063171,67.904007 
	C50.886723,67.955070 50.904541,67.469864 51.022850,67.257874 
z"/>
<path fill="#7D3DD3" opacity="1.000000" stroke="none" 
	d="
M183.392578,73.179764 
	C183.320984,72.945847 183.514694,72.634109 183.993988,72.279839 
	C184.072342,72.525513 183.865097,72.813721 183.392578,73.179764 
z"/>
<path fill="#3B87D7" opacity="1.000000" stroke="none" 
	d="
M65.394409,126.127373 
	C65.298065,125.877327 65.484924,125.567795 65.930122,125.155411 
	C66.018173,125.390999 65.847893,125.729439 65.394409,126.127373 
z"/>
<path fill="#5C0FD5" opacity="1.000000" stroke="none" 
	d="
M156.197296,124.997086 
	C156.073044,124.873940 156.141281,124.648270 156.371033,124.302544 
	C156.457092,124.408852 156.409515,124.646210 156.197296,124.997086 
z"/>
<path fill="#529CD7" opacity="1.000000" stroke="none" 
	d="
M67.391190,123.255722 
	C67.276146,123.058006 67.401337,122.692558 67.777328,122.170059 
	C67.895897,122.371330 67.763664,122.729660 67.391190,123.255722 
z"/>
<path fill="#7702E4" opacity="1.000000" stroke="none" 
	d="
M160.324463,118.025436 
	C160.116577,117.769562 160.271423,117.487808 160.742310,117.143555 
	C160.832779,117.331223 160.709061,117.637390 160.324463,118.025436 
z"/>
<path fill="#3833D3" opacity="1.000000" stroke="none" 
	d="
M91.880035,113.120377 
	C91.539139,113.010193 91.259666,112.835030 90.898575,112.419662 
	C90.816963,112.179466 90.944923,112.058426 91.216026,112.119049 
	C91.742805,112.375702 91.932953,112.622253 92.057571,112.919350 
	C92.057571,112.919350 91.941475,113.055397 91.880035,113.120377 
z"/>
<path fill="#77DCEF" opacity="1.000000" stroke="none" 
	d="
M97.732819,40.936554 
	C98.067101,41.357395 98.256065,41.608757 98.707466,41.940948 
	C99.361794,43.016006 99.816536,43.962967 100.602104,44.986343 
	C101.372795,46.013493 101.812675,46.964218 102.580299,48.000069 
	C104.350563,51.033787 105.793091,53.982376 107.586922,56.994804 
	C107.803963,58.283203 107.669701,59.507755 107.434723,61.650829 
	C105.777229,60.124111 104.817513,59.240120 103.806480,58.308865 
	C102.437523,59.183472 101.069695,60.057350 99.351395,60.967598 
	C99.226547,58.114765 98.011497,56.540165 95.475456,54.770386 
	C92.174591,52.466888 89.828163,48.795719 87.034309,45.357941 
	C88.662842,43.242546 90.328056,41.482349 91.999748,39.358334 
	C93.057083,39.005768 94.107956,39.017021 95.551132,39.051750 
	C96.081154,39.369209 96.278923,39.614826 96.743790,39.930252 
	C97.074341,40.354492 97.265602,40.609795 97.732819,40.936554 
z"/>
<path fill="#25AFD9" opacity="1.000000" stroke="none" 
	d="
M98.760117,71.976929 
	C99.811531,72.556816 100.638023,73.175323 101.731018,73.956879 
	C102.331451,76.145180 102.665382,78.170441 103.001381,80.590256 
	C102.116302,81.817360 101.229164,82.649910 99.838028,83.708023 
	C97.895782,82.953720 96.457542,81.973862 95.141197,80.695633 
	C94.565399,79.609062 93.867699,78.820862 93.169998,78.032669 
	C94.707123,76.232414 96.244247,74.432159 97.930634,72.339661 
	C98.079895,72.047409 98.535194,72.015541 98.760117,71.976929 
z"/>
<path fill="#5BBED5" opacity="1.000000" stroke="none" 
	d="
M81.285851,84.789230 
	C75.802567,81.086288 70.570213,77.209770 65.425301,73.220474 
	C64.403046,72.427826 63.821224,71.086540 62.848011,70.206474 
	C61.574898,69.055222 60.114540,68.111023 58.366684,67.038116 
	C62.116211,61.877964 62.145344,62.047707 66.723091,66.118027 
	C70.909531,69.840416 75.488800,73.125069 79.938896,76.545441 
	C82.850517,78.783333 84.111900,81.272110 81.285851,84.789230 
z"/>
<path fill="#5BBED5" opacity="1.000000" stroke="none" 
	d="
M82.187393,96.349548 
	C80.732620,94.843292 79.277855,93.337044 77.295303,91.284317 
	C78.177963,90.064117 79.251923,88.579460 80.660042,87.047073 
	C82.292175,88.241203 83.590134,89.483078 85.007660,91.363220 
	C84.147270,93.450851 83.167328,94.900200 82.187393,96.349548 
z"/>
<path fill="#6DCCDF" opacity="1.000000" stroke="none" 
	d="
M86.711136,75.277107 
	C88.781319,76.229622 90.562645,77.459541 92.551025,79.151711 
	C92.113655,80.733543 91.469223,81.853134 90.824799,82.972717 
	C89.386955,82.881828 87.949112,82.790939 85.938828,82.663857 
	C86.116959,80.044235 86.269615,77.799377 86.711136,75.277107 
z"/>
<path fill="#1C7ABE" opacity="1.000000" stroke="none" 
	d="
M82.157860,96.673355 
	C83.167328,94.900200 84.147270,93.450851 85.147537,91.683289 
	C86.242805,89.980614 87.317757,88.596153 88.692413,87.482124 
	C88.993317,89.168991 88.994514,90.585426 88.728935,92.190933 
	C87.973396,93.584679 87.484627,94.789337 86.660294,96.043625 
	C84.866814,97.051567 83.408897,98.009888 81.950981,98.968208 
	C82.010101,98.311195 82.069214,97.654182 82.157860,96.673355 
z"/>
<path fill="#1D98C9" opacity="1.000000" stroke="none" 
	d="
M90.748474,83.273285 
	C91.469223,81.853134 92.113655,80.733543 92.836975,79.303589 
	C92.915878,78.993225 93.037605,78.511765 93.103806,78.272217 
	C93.867699,78.820862 94.565399,79.609062 94.863388,80.932289 
	C94.641846,83.644371 94.820007,85.821419 94.749367,88.000069 
	C94.500572,88.001663 94.002998,88.007324 93.664429,87.954948 
	C92.154457,87.232742 90.983047,86.562904 89.811638,85.893066 
	C90.098473,85.120003 90.385307,84.346931 90.748474,83.273285 
z"/>
<path fill="#1686CF" opacity="1.000000" stroke="none" 
	d="
M89.624008,86.016220 
	C90.983047,86.562904 92.154457,87.232742 93.624420,88.318970 
	C93.616440,90.155281 93.309898,91.575203 92.893982,93.215408 
	C92.584175,93.711014 92.321526,93.899750 91.713661,93.880737 
	C90.619019,93.173668 89.807365,92.587761 88.995712,92.001854 
	C88.994514,90.585426 88.993317,89.168991 88.981308,87.324814 
	C89.057289,86.602371 89.212585,86.349800 89.624008,86.016220 
z"/>
<path fill="#386BDD" opacity="1.000000" stroke="none" 
	d="
M54.691643,143.649017 
	C54.579556,144.386566 54.282917,144.851028 53.923325,145.590820 
	C52.794029,146.487030 51.727688,147.107925 50.583130,147.774353 
	C49.551342,146.917374 48.571053,146.103180 47.295639,144.745453 
	C47.002098,143.135818 47.003681,142.069702 47.005264,141.003586 
	C47.830563,140.136398 48.655861,139.269211 49.740726,138.200714 
	C51.502556,139.791565 53.004822,141.583755 54.691643,143.649017 
z"/>
<path fill="#4EAFD2" opacity="1.000000" stroke="none" 
	d="
M48.995773,76.990326 
	C50.342010,75.527672 51.688244,74.065018 53.060497,72.574097 
	C59.535637,77.557289 65.114243,82.448624 71.291290,86.405792 
	C75.832237,89.314835 76.796806,92.558403 74.840584,97.847321 
	C74.110435,98.660561 73.555206,98.829544 73.024139,98.678001 
	C72.465576,96.838348 72.325958,94.759682 71.228493,93.890617 
	C63.932018,88.112679 56.430573,82.593582 48.995773,76.990326 
z"/>
<path fill="#4AA4D4" opacity="1.000000" stroke="none" 
	d="
M72.002136,109.998779 
	C70.766182,109.861855 69.530220,109.724930 68.146690,109.293549 
	C68.217285,107.537453 68.600449,106.075981 68.601830,104.614151 
	C68.602951,103.427132 68.560333,101.681168 67.828468,101.138100 
	C59.771133,95.159348 51.574932,89.367729 43.206978,83.260986 
	C43.779686,82.339859 44.561794,81.683128 45.572998,81.303368 
	C49.864521,84.051964 54.249367,86.126373 57.907696,89.095833 
	C62.473415,92.801804 69.380867,94.058777 71.000305,101.358795 
	C71.332008,104.475052 71.667068,107.236916 72.002136,109.998779 
z"/>
<path fill="#4BA9D3" opacity="1.000000" stroke="none" 
	d="
M71.003662,101.004395 
	C69.380867,94.058777 62.473415,92.801804 57.907696,89.095833 
	C54.249367,86.126373 49.864521,84.051964 45.893494,81.271729 
	C46.751842,79.666756 47.518799,78.370384 48.640762,77.032166 
	C56.430573,82.593582 63.932018,88.112679 71.228493,93.890617 
	C72.325958,94.759682 72.465576,96.838348 72.982208,98.998512 
	C72.278633,100.094498 71.641144,100.549446 71.003662,101.004395 
z"/>
<path fill="#56AAD8" opacity="1.000000" stroke="none" 
	d="
M71.000305,101.358795 
	C71.641144,100.549446 72.278633,100.094498 72.958054,99.319038 
	C73.555206,98.829544 74.110435,98.660561 74.832718,98.246399 
	C76.856377,98.183434 78.712967,98.365639 80.767548,99.191971 
	C80.227081,101.525352 79.488617,103.214607 78.750153,104.903854 
	C77.230438,106.406448 75.710716,107.909042 74.030472,109.695023 
	C73.455238,109.984879 73.040535,109.991356 72.313980,109.998306 
	C71.667068,107.236916 71.332008,104.475052 71.000305,101.358795 
z"/>
<path fill="#1F64C9" opacity="1.000000" stroke="none" 
	d="
M79.191376,104.936554 
	C79.488617,103.214607 80.227081,101.525352 81.014145,99.500702 
	C81.062744,99.165298 81.502380,99.045097 81.726685,99.006653 
	C83.408897,98.009888 84.866814,97.051567 86.661194,96.420197 
	C86.999359,97.500168 87.001053,98.253181 87.041397,99.370865 
	C87.385483,101.156914 87.690910,102.578308 87.996338,103.999695 
	C85.208427,104.322876 82.420509,104.646065 79.191376,104.936554 
z"/>
<path fill="#345FDD" opacity="1.000000" stroke="none" 
	d="
M46.692154,140.866440 
	C47.003681,142.069702 47.002098,143.135818 47.001400,144.601883 
	C46.510101,145.264938 46.017914,145.528046 45.268478,145.900604 
	C37.374203,139.827454 29.699389,133.690277 22.144766,127.408546 
	C21.123915,126.559700 20.706854,124.984703 20.009136,123.378250 
	C27.874731,124.349045 32.277687,131.034470 38.447746,134.993134 
	C41.189613,136.752289 43.741123,138.808121 46.692154,140.866440 
z"/>
<path fill="#6B01E9" opacity="1.000000" stroke="none" 
	d="
M152.594055,127.000069 
	C152.505493,127.590149 152.022247,128.179062 150.851257,128.885757 
	C148.688980,129.092712 146.801208,128.627014 145.809982,129.365173 
	C141.004684,132.943741 138.786804,129.404572 136.140625,126.364685 
	C134.223618,124.162453 132.134018,122.078979 129.920639,120.176018 
	C128.093674,118.605286 125.972466,117.376785 123.985840,115.622498 
	C123.987167,114.500031 123.984299,113.751694 124.116745,112.705414 
	C125.155838,111.601227 126.059593,110.794983 126.963364,109.988739 
	C127.595497,110.168221 128.566910,110.147507 128.808701,110.557304 
	C132.261505,116.408981 137.753311,119.835190 143.481277,122.933876 
	C146.296463,124.456825 149.287750,125.654198 152.594055,127.000069 
z"/>
<path fill="#8401E6" opacity="1.000000" stroke="none" 
	d="
M139.996338,95.999580 
	C139.933640,103.707748 140.334244,111.473808 145.430252,117.687431 
	C148.748123,121.732956 153.215851,120.026787 157.621857,118.051544 
	C154.968246,119.914207 151.903473,123.316322 148.912094,123.252960 
	C146.379395,123.199318 143.353638,119.503120 141.603424,116.747368 
	C139.728729,113.795570 139.576447,110.018044 134.755814,109.300110 
	C133.772156,109.153618 133.560379,103.824272 132.991562,100.085297 
	C133.334778,98.195786 133.679214,97.105064 134.376526,96.006226 
	C136.485046,95.998589 138.240692,95.999084 139.996338,95.999580 
z"/>
<path fill="#6502C6" opacity="1.000000" stroke="none" 
	d="
M134.023651,96.014351 
	C133.679214,97.105064 133.334778,98.195786 132.985382,99.634964 
	C131.192902,101.890350 129.405380,103.797264 127.007843,105.705009 
	C125.181740,104.733932 123.965652,103.762032 123.363396,103.280693 
	C124.018623,100.223869 124.480049,98.071182 124.947594,95.597610 
	C124.947403,94.847290 124.941109,94.417870 124.997726,93.641861 
	C125.157410,92.601723 125.254173,91.908165 125.669914,91.176666 
	C126.811317,91.003876 127.633751,90.869034 128.817627,90.884201 
	C131.116882,91.691650 133.054718,92.349075 134.971558,93.325653 
	C134.641602,94.434662 134.332626,95.224510 134.023651,96.014351 
z"/>
<path fill="#5903D1" opacity="1.000000" stroke="none" 
	d="
M124.941483,95.918495 
	C124.480049,98.071182 124.018623,100.223869 123.363396,103.280693 
	C123.965652,103.762032 125.181740,104.733932 126.708923,105.860291 
	C127.007462,107.074532 126.994904,108.134323 126.972855,109.591415 
	C126.059593,110.794983 125.155838,111.601227 123.740807,112.710144 
	C118.028908,113.956841 118.028908,113.956841 117.996155,106.741753 
	C117.988045,106.319550 117.981697,106.150711 117.986320,105.741867 
	C117.997292,105.501869 118.014236,105.021660 118.337021,104.974670 
	C119.089622,104.267822 119.519440,103.607971 120.216553,102.726120 
	C121.969711,100.308922 123.455589,98.113708 124.941483,95.918495 
z"/>
<path fill="#4D5AE3" opacity="1.000000" stroke="none" 
	d="
M44.628067,149.997894 
	C45.997574,151.410828 46.991913,152.824341 47.975616,154.603561 
	C46.019077,153.868332 43.782043,160.305908 42.002029,154.374435 
	C41.997402,152.940582 41.999332,151.871536 42.001854,150.401855 
	C42.752594,150.000305 43.502747,149.999374 44.628067,149.997894 
z"/>
<path fill="#832BCF" opacity="1.000000" stroke="none" 
	d="
M154.137009,49.311409 
	C154.439163,47.008842 154.870712,45.232613 157.380127,47.405594 
	C159.969406,49.647724 162.585922,51.903999 165.435303,53.782913 
	C167.118637,54.892929 169.276581,55.283211 171.609634,55.996170 
	C171.998169,55.995182 172.000000,55.999947 172.030640,56.340012 
	C172.707123,58.120052 173.352951,59.560024 173.998779,60.999996 
	C170.048416,59.219040 165.958679,57.686737 162.193161,55.576004 
	C159.340134,53.976768 156.900513,51.640045 154.137009,49.311409 
z"/>
<path fill="#8434D7" opacity="1.000000" stroke="none" 
	d="
M174.159393,61.308220 
	C173.352951,59.560024 172.707123,58.120052 172.031235,56.341064 
	C177.120117,59.161644 184.192978,59.903702 185.964493,67.619362 
	C182.109985,65.861305 178.214996,63.738876 174.159393,61.308220 
z"/>
<path fill="#961DC4" opacity="1.000000" stroke="none" 
	d="
M167.954926,64.652458 
	C164.364258,62.900894 160.721298,60.809631 157.039780,58.358307 
	C160.635025,60.103085 164.268845,62.207920 167.954926,64.652458 
z"/>
<path fill="#544BE0" opacity="1.000000" stroke="none" 
	d="
M38.999908,157.396790 
	C39.223183,158.299362 39.445251,159.602295 39.337227,160.952148 
	C39.004322,159.931763 39.001514,158.864456 38.999908,157.396790 
z"/>
<path fill="#9E01E6" opacity="1.000000" stroke="none" 
	d="
M162.985962,107.999420 
	C162.326447,109.750244 161.666901,111.501060 160.998978,113.613907 
	C158.660110,114.577446 156.155182,116.015419 154.042084,115.574684 
	C151.223419,114.986816 148.312119,113.363861 146.191833,111.381859 
	C144.539978,109.837730 143.799850,107.139656 143.079727,104.822289 
	C142.165497,101.880295 141.681091,98.804741 141.031738,95.065628 
	C141.703323,93.226395 142.354523,92.108292 143.005707,90.990189 
	C143.498184,91.255180 143.990646,91.520172 144.736832,92.268524 
	C143.538177,102.920990 151.012665,112.401741 162.985962,107.999420 
z"/>
<path fill="#8901D5" opacity="1.000000" stroke="none" 
	d="
M143.003082,90.558876 
	C142.354523,92.108292 141.703323,93.226395 141.022491,94.670700 
	C140.670593,95.099251 140.410400,95.287415 140.104309,95.780502 
	C138.240692,95.999084 136.485046,95.998589 134.376526,96.006226 
	C134.332626,95.224510 134.641602,94.434662 135.260849,93.184021 
	C136.375931,91.477432 137.180740,90.231628 137.985550,88.985825 
	C139.421463,87.664474 140.857391,86.343140 142.622528,84.969299 
	C142.967972,86.653725 142.984222,88.390640 143.003082,90.558876 
z"/>
<path fill="#6F02B8" opacity="1.000000" stroke="none" 
	d="
M137.615906,88.993942 
	C137.180740,90.231628 136.375931,91.477432 135.281830,92.864868 
	C133.054718,92.349075 131.116882,91.691650 128.925720,90.547905 
	C129.642517,88.047356 130.612671,86.033127 131.582825,84.018890 
	C131.652206,83.848099 131.721603,83.677315 131.931503,83.268593 
	C132.732513,84.933411 133.393005,86.836166 134.266830,89.353546 
	C134.620911,89.311775 135.933578,89.156921 137.615906,88.993942 
z"/>
<path fill="#217EE0" opacity="1.000000" stroke="none" 
	d="
M91.996643,94.001907 
	C92.321526,93.899750 92.584175,93.711014 93.333382,93.216858 
	C98.730858,93.227936 103.350037,92.704033 107.002045,89.003479 
	C107.752960,89.003082 108.503868,89.002693 109.630394,89.005882 
	C110.003716,89.755875 110.001427,90.502281 109.621857,91.628616 
	C103.497406,93.672379 97.750229,95.336227 92.001671,96.625290 
	C91.999077,95.500961 91.997856,94.751434 91.996643,94.001907 
z"/>
<path fill="#1A9AE0" opacity="1.000000" stroke="none" 
	d="
M94.998169,87.998474 
	C94.820007,85.821419 94.641846,83.644371 94.741501,81.230659 
	C96.457542,81.973862 97.895782,82.953720 99.665192,83.964203 
	C101.427834,84.661095 102.859291,85.327370 104.648277,85.998505 
	C105.002983,86.752029 105.000175,87.500710 104.555962,88.623703 
	C101.075768,88.664833 98.036964,88.331650 94.998169,87.998474 
z"/>
<path fill="#1E8CDE" opacity="1.000000" stroke="none" 
	d="
M94.749374,88.000069 
	C98.036964,88.331650 101.075768,88.664833 104.554230,88.998093 
	C105.440163,88.998955 105.886436,88.999741 106.667374,89.001999 
	C103.350037,92.704033 98.730858,93.227936 93.442757,92.996567 
	C93.309898,91.575203 93.616440,90.155281 93.962990,88.371346 
	C94.002998,88.007324 94.500572,88.001663 94.749374,88.000069 
z"/>
<path fill="#4304DC" opacity="1.000000" stroke="none" 
	d="
M103.969063,129.002441 
	C102.647751,126.607040 101.326431,124.211639 100.006706,121.419601 
	C100.008293,121.022972 100.501625,121.003502 101.155609,121.003494 
	C104.689285,121.162529 107.270119,120.932693 107.344299,116.955963 
	C109.452957,115.603233 111.227638,114.301155 113.001526,113.401695 
	C112.870522,114.763153 112.895966,115.775978 112.585114,116.672157 
	C110.400719,122.969994 110.378563,122.962311 116.995850,123.330589 
	C116.998337,124.108521 116.999474,124.553040 116.703934,125.140678 
	C115.604027,126.519279 114.800797,127.754761 113.543259,128.992065 
	C110.048988,128.996750 107.009026,128.999588 103.969063,129.002441 
z"/>
<path fill="#333BDE" opacity="1.000000" stroke="none" 
	d="
M92.434250,112.947250 
	C91.932953,112.622253 91.742805,112.375702 91.283127,112.062012 
	C91.055107,111.516083 91.031097,111.087822 90.999298,110.338303 
	C94.033890,109.667297 97.132080,109.564911 100.102242,108.894951 
	C102.818520,108.282257 106.147034,107.909134 106.002411,103.395744 
	C106.000740,103.000778 106.008652,103.006920 106.356201,103.002975 
	C107.801720,102.335388 108.899681,101.671753 110.371658,101.006180 
	C111.493355,100.998863 112.241020,100.993484 112.991562,101.242706 
	C112.996567,101.667038 112.998703,101.836761 112.965591,102.346336 
	C111.285881,104.126457 109.641411,105.566734 107.691132,107.163055 
	C106.923752,108.543762 106.462189,109.768448 106.000412,110.996376 
	C106.000206,110.999619 105.993286,111.000870 105.993286,111.000870 
	C101.599167,111.658966 97.205055,112.317062 92.434250,112.947250 
z"/>
<path fill="#3D1DD7" opacity="1.000000" stroke="none" 
	d="
M107.010323,117.006622 
	C107.270119,120.932693 104.689285,121.162529 101.402382,120.996971 
	C104.017769,118.656555 105.429283,115.464027 105.950211,111.387390 
	C105.993286,111.000870 106.000206,110.999619 106.258644,110.891403 
	C107.007706,110.521118 107.498337,110.259048 107.993378,110.252823 
	C108.000984,110.679237 108.004189,110.849800 107.999924,111.403053 
	C107.665085,113.526039 107.337700,115.266335 107.010323,117.006622 
z"/>
<path fill="#2C58DE" opacity="1.000000" stroke="none" 
	d="
M106.003822,103.004730 
	C100.797409,104.500816 95.587914,105.992966 90.187027,107.241386 
	C89.996048,106.249977 89.996468,105.502289 90.366287,104.217728 
	C92.482735,103.452812 94.376976,103.578148 95.946686,102.924339 
	C99.382927,101.493080 102.654541,99.666595 106.146744,97.694611 
	C108.865852,95.591339 111.431610,93.795006 113.997368,91.998672 
	C114.768250,91.666161 115.539131,91.333649 116.892952,91.164719 
	C117.649040,91.883034 117.822189,92.437767 117.692947,93.142303 
	C114.924103,95.525574 112.457649,97.759041 109.627747,99.999046 
	C108.179070,101.006027 107.093864,102.006477 106.008652,103.006920 
	C106.008652,103.006920 106.000740,103.000778 106.003822,103.004730 
z"/>
<path fill="#2766DA" opacity="1.000000" stroke="none" 
	d="
M105.993385,98.001526 
	C102.654541,99.666595 99.382927,101.493080 95.946686,102.924339 
	C94.376976,103.578148 92.482735,103.452812 90.365860,103.843842 
	C89.551704,104.005013 89.107384,104.003189 88.329697,104.000534 
	C87.690910,102.578308 87.385483,101.156914 87.413780,99.367905 
	C89.163986,98.667519 90.580467,98.334747 92.246193,98.279236 
	C96.994759,98.371506 101.494072,98.186516 105.993385,98.001526 
z"/>
<path fill="#A901E2" opacity="1.000000" stroke="none" 
	d="
M162.989609,107.649094 
	C151.012665,112.401741 143.538177,102.920990 144.995575,92.376099 
	C145.761917,90.693359 146.523224,89.386421 147.642609,88.440483 
	C149.565796,99.961456 153.276245,103.991943 161.995728,104.003662 
	C162.328232,105.102036 162.660736,106.200401 162.989609,107.649094 
z"/>
<path fill="#B300DF" opacity="1.000000" stroke="none" 
	d="
M161.997528,103.628662 
	C153.276245,103.991943 149.565796,99.961456 147.998917,88.401306 
	C148.465912,87.680641 148.934662,87.360161 150.003754,87.166229 
	C154.403625,91.863213 158.203125,96.433640 162.002640,101.004074 
	C162.001541,101.753937 162.000443,102.503807 161.997528,103.628662 
z"/>
<path fill="#B800D6" opacity="1.000000" stroke="none" 
	d="
M162.261353,100.897148 
	C158.203125,96.433640 154.403625,91.863213 150.302063,87.146088 
	C150.170471,86.443436 150.340942,85.887489 151.138336,85.171066 
	C155.907089,86.240219 160.316498,86.962929 161.858582,92.095474 
	C162.120499,92.967209 163.909698,93.380074 164.993286,94.004936 
	C165.646149,95.119202 166.299026,96.233467 166.696198,97.793121 
	C165.626801,98.826653 164.813095,99.414795 163.999390,100.002930 
	C163.506271,100.265358 163.013168,100.527786 162.261353,100.897148 
z"/>
<path fill="#B501CA" opacity="1.000000" stroke="none" 
	d="
M164.995392,93.598015 
	C163.909698,93.380074 162.120499,92.967209 161.858582,92.095474 
	C160.316498,86.962929 155.907089,86.240219 151.384445,85.004074 
	C151.002411,83.609924 151.001175,82.222290 151.000885,80.418396 
	C155.112350,81.640633 159.222855,83.279129 163.701111,84.933792 
	C164.632523,85.455627 165.196182,85.961304 165.876984,86.730957 
	C165.661926,89.060318 165.329697,91.125702 164.995392,93.598015 
z"/>
<path fill="#2462F1" opacity="1.000000" stroke="none" 
	d="
M117.995346,92.992508 
	C117.822189,92.437767 117.649040,91.883034 117.229126,91.161407 
	C118.800026,86.410667 123.527443,86.719284 127.068138,85.064072 
	C128.231201,84.520355 129.609009,84.436028 131.235718,84.080261 
	C130.612671,86.033127 129.642517,88.047356 128.564270,90.397888 
	C127.633751,90.869034 126.811317,91.003876 125.261612,91.110519 
	C122.354675,91.719048 120.175011,92.355774 117.995346,92.992508 
z"/>
<path fill="#2670E1" opacity="1.000000" stroke="none" 
	d="
M106.146744,97.694603 
	C101.494072,98.186516 96.994759,98.371506 92.246826,98.028740 
	C91.999825,97.334007 92.001442,97.167038 92.003052,97.000076 
	C97.750229,95.336227 103.497406,93.672379 109.620911,92.001976 
	C111.064041,91.996239 112.130836,91.997055 113.597496,91.998276 
	C111.431610,93.795006 108.865852,95.591339 106.146744,97.694603 
z"/>
<path fill="#3502ED" opacity="1.000000" stroke="none" 
	d="
M103.980637,129.379959 
	C107.009026,128.999588 110.048988,128.996750 113.578171,129.345551 
	C117.876190,136.791824 123.652260,141.872131 130.339722,145.805206 
	C130.233398,147.193558 130.125381,148.604172 130.017349,150.014786 
	C128.648453,153.600525 125.706810,152.288635 123.900703,151.263947 
	C119.026085,148.498352 114.479858,145.153946 109.476845,141.945251 
	C107.430984,137.820023 105.711601,133.788757 103.980637,129.379959 
z"/>
<path fill="#4200ED" opacity="1.000000" stroke="none" 
	d="
M130.443268,150.010971 
	C130.125381,148.604172 130.233398,147.193558 130.339722,145.805206 
	C123.652260,141.872131 117.876190,136.791824 114.032471,129.343719 
	C114.800797,127.754761 115.604027,126.519279 117.045822,125.192085 
	C122.321831,131.647675 127.197250,137.911072 134.690201,141.569565 
	C135.493774,141.961899 135.581055,143.821274 135.764465,145.169067 
	C136.018631,146.224136 136.508942,147.110245 136.999619,147.998169 
	C137.000000,148.000000 137.003326,148.001831 137.003326,148.001831 
	C136.741257,148.492065 136.479187,148.982300 136.101257,149.725586 
	C134.279984,149.988159 132.574585,149.997650 130.443268,150.010971 
z"/>
<path fill="#B501CA" opacity="1.000000" stroke="none" 
	d="
M164.187958,100.269447 
	C164.813095,99.414795 165.626801,98.826653 166.725952,98.119095 
	C167.336853,99.086624 167.662277,100.173569 167.981842,101.624420 
	C166.776154,101.504204 165.576355,101.020081 164.187958,100.269447 
z"/>
<path fill="#5C00EC" opacity="1.000000" stroke="none" 
	d="
M123.981644,115.996628 
	C125.972466,117.376785 128.093674,118.605286 129.920639,120.176018 
	C132.134018,122.078979 134.223618,124.162453 136.140625,126.364685 
	C138.786804,129.404572 141.004684,132.943741 145.809982,129.365173 
	C146.801208,128.627014 148.688980,129.092712 150.584991,129.005402 
	C149.432037,131.124390 147.857635,133.241516 145.711731,135.680176 
	C134.670151,134.317596 125.311172,130.957840 121.030151,119.646484 
	C122.036667,118.199783 123.009155,117.098206 123.981644,115.996628 
z"/>
<path fill="#4F00EC" opacity="1.000000" stroke="none" 
	d="
M120.996124,119.991600 
	C125.311172,130.957840 134.670151,134.317596 145.569809,136.001770 
	C146.001404,136.751541 146.003418,137.501236 146.004242,138.625854 
	C143.563507,139.645569 141.123962,140.290375 138.525604,140.977173 
	C138.966721,142.850510 139.478271,145.022980 139.977676,147.580475 
	C139.225235,147.977798 138.484924,147.990112 137.373978,148.002136 
	C137.003326,148.001831 137.000000,148.000000 137.116455,147.711273 
	C136.822128,146.615082 136.411377,145.807602 136.000610,145.000122 
	C135.581055,143.821274 135.493774,141.961899 134.690201,141.569565 
	C127.197250,137.911072 122.321831,131.647675 117.342499,125.048965 
	C116.999474,124.553040 116.998337,124.108521 117.140961,123.034821 
	C118.521858,121.600960 119.758995,120.796280 120.996124,119.991600 
z"/>
<path fill="#1A75CF" opacity="1.000000" stroke="none" 
	d="
M92.001671,96.625282 
	C92.001442,97.167038 91.999825,97.334007 91.997574,97.751480 
	C90.580467,98.334747 89.163986,98.667519 87.375130,99.003250 
	C87.001053,98.253181 86.999359,97.500168 86.996765,96.370575 
	C87.484627,94.789337 87.973396,93.584679 88.728935,92.190933 
	C89.807365,92.587761 90.619019,93.173668 91.713661,93.880737 
	C91.997856,94.751434 91.999077,95.500961 92.001671,96.625282 
z"/>
<path fill="#5001D9" opacity="1.000000" stroke="none" 
	d="
M121.030151,119.646484 
	C119.758995,120.796280 118.521858,121.600960 117.139618,122.701401 
	C110.378563,122.962311 110.400719,122.969994 112.585114,116.672157 
	C112.895966,115.775978 112.870522,114.763153 113.299141,113.250397 
	C115.064346,110.796021 116.531136,108.895569 117.997925,106.995125 
	C118.028908,113.956841 118.028908,113.956841 123.605484,113.008087 
	C123.984299,113.751694 123.987167,114.500031 123.985840,115.622498 
	C123.009155,117.098206 122.036667,118.199783 121.030151,119.646484 
z"/>
<path fill="#3334E9" opacity="1.000000" stroke="none" 
	d="
M113.000839,102.006493 
	C112.998703,101.836761 112.996567,101.667038 113.035202,100.882492 
	C114.656685,99.041054 116.101807,97.549202 117.852150,96.654366 
	C120.084007,95.513351 122.562584,94.854904 124.934807,93.988441 
	C124.941109,94.417870 124.947403,94.847290 124.947586,95.597610 
	C123.455589,98.113708 121.969711,100.308922 119.892563,102.735565 
	C118.868034,102.975052 118.434776,102.983124 117.751419,102.713631 
	C116.001152,102.292877 114.500992,102.149681 113.000839,102.006493 
z"/>
<path fill="#2A4AEC" opacity="1.000000" stroke="none" 
	d="
M124.997726,93.641861 
	C122.562584,94.854904 120.084007,95.513351 117.852150,96.654366 
	C116.101807,97.549202 114.656685,99.041054 113.032333,100.627899 
	C112.241020,100.993484 111.493355,100.998863 110.371323,100.752213 
	C109.995033,100.330963 109.993111,100.161728 109.991196,99.992508 
	C112.457649,97.759041 114.924103,95.525574 117.692947,93.142303 
	C120.175011,92.355774 122.354675,91.719048 124.942642,91.148468 
	C125.254173,91.908165 125.157410,92.601723 124.997726,93.641861 
z"/>
<path fill="#3720E5" opacity="1.000000" stroke="none" 
	d="
M112.965591,102.346336 
	C114.500992,102.149681 116.001152,102.292877 117.751678,103.052032 
	C118.006119,104.119225 118.010178,104.570442 118.014236,105.021660 
	C118.014236,105.021660 117.997292,105.501869 117.632736,105.781937 
	C114.181252,107.714783 111.094322,109.367569 108.007385,111.020355 
	C108.004189,110.849800 108.000984,110.679237 107.995880,109.879036 
	C107.994965,108.501938 107.995956,107.754478 107.996948,107.007019 
	C109.641411,105.566734 111.285881,104.126457 112.965591,102.346336 
z"/>
<path fill="#3F0FE0" opacity="1.000000" stroke="none" 
	d="
M107.999924,111.403053 
	C111.094322,109.367569 114.181252,107.714783 117.621765,106.021935 
	C117.981697,106.150711 117.988045,106.319550 117.996155,106.741753 
	C116.531136,108.895569 115.064346,110.796021 113.299942,112.847778 
	C111.227638,114.301155 109.452957,115.603233 107.344299,116.955963 
	C107.337700,115.266335 107.665085,113.526039 107.999924,111.403053 
z"/>
<path fill="#3F0FE0" opacity="1.000000" stroke="none" 
	d="
M118.337021,104.974670 
	C118.010178,104.570442 118.006119,104.119225 118.001785,103.329605 
	C118.434776,102.983124 118.868034,102.975052 119.625275,102.957550 
	C119.519440,103.607971 119.089622,104.267822 118.337021,104.974670 
z"/>
<path fill="#304BDB" opacity="1.000000" stroke="none" 
	d="
M109.627739,99.999039 
	C109.993111,100.161728 109.995033,100.330963 109.997299,100.754166 
	C108.899681,101.671753 107.801720,102.335388 106.356201,103.002975 
	C107.093864,102.006477 108.179070,101.006027 109.627739,99.999039 
z"/>
<path fill="#3833D3" opacity="1.000000" stroke="none" 
	d="
M107.691132,107.163055 
	C107.995956,107.754478 107.994965,108.501938 107.991470,109.623184 
	C107.498337,110.259048 107.007706,110.521118 106.258850,110.888153 
	C106.462189,109.768448 106.923752,108.543762 107.691132,107.163055 
z"/>
<path fill="#4E0BDA" opacity="1.000000" stroke="none" 
	d="
M135.764465,145.169067 
	C136.411377,145.807602 136.822128,146.615082 137.116058,147.709457 
	C136.508942,147.110245 136.018631,146.224136 135.764465,145.169067 
z"/>
</svg>