<svg version="1.1" id="Layer_1" xmlns="http://www.w3.org/2000/svg" xmlns:xlink="http://www.w3.org/1999/xlink" x="0px" y="0px"
	 width="100%" viewBox="0 0 200 200" enable-background="new 0 0 200 200" xml:space="preserve">
<path fill="#010101" opacity="1.000000" stroke="none" 
	d="
M87.000000,201.000000 
	C58.000000,201.000000 29.500004,201.000000 1.000004,201.000000 
	C1.000003,134.333344 1.000003,67.666679 1.000001,1.000013 
	C67.666656,1.000009 134.333313,1.000009 200.999969,1.000004 
	C200.999985,67.666649 200.999985,134.333298 201.000000,200.999969 
	C163.166672,201.000000 125.333336,201.000000 87.000000,201.000000 
M76.000313,116.500000 
	C76.000313,103.072754 76.000313,89.645500 76.000313,75.860825 
	C102.122185,75.860825 127.677010,75.860825 153.984314,75.860825 
	C145.378159,67.204361 137.462570,58.966171 129.178162,51.117271 
	C127.270912,49.310287 124.113152,47.940933 121.505783,47.898136 
	C104.349876,47.616535 87.187088,47.753326 70.026550,47.753578 
	C62.742775,47.753681 55.459003,47.753593 48.365540,47.753593 
	C48.053303,48.451736 47.813492,48.737892 47.813110,49.024368 
	C47.780140,73.848244 47.749260,98.672173 47.799072,123.495941 
	C47.801521,124.715225 48.162708,126.283188 48.960377,127.097816 
	C57.646439,135.968613 66.453072,144.721344 76.000313,154.280655 
	C76.000313,141.330765 76.000313,129.415390 76.000313,116.500000 
M124.084877,134.585159 
	C117.755501,140.811340 111.426117,147.037521 104.422905,153.926544 
	C121.774841,153.926544 137.918488,153.926544 153.947327,153.926544 
	C153.947327,137.583954 153.947327,121.575417 153.947327,104.572311 
	C143.719864,114.852165 134.152451,124.468605 124.084877,134.585159 
z"/>
<path fill="#FEFEFE" opacity="1.000000" stroke="none" 
	d="
M76.000313,117.000000 
	C76.000313,129.415390 76.000313,141.330765 76.000313,154.280655 
	C66.453072,144.721344 57.646439,135.968613 48.960377,127.097816 
	C48.162708,126.283188 47.801521,124.715225 47.799072,123.495941 
	C47.749260,98.672173 47.780140,73.848244 47.813110,49.024368 
	C47.813492,48.737892 48.053303,48.451736 48.365540,47.753593 
	C55.459003,47.753593 62.742775,47.753681 70.026550,47.753578 
	C87.187088,47.753326 104.349876,47.616535 121.505783,47.898136 
	C124.113152,47.940933 127.270912,49.310287 129.178162,51.117271 
	C137.462570,58.966171 145.378159,67.204361 153.984314,75.860825 
	C127.677010,75.860825 102.122185,75.860825 76.000313,75.860825 
	C76.000313,89.645500 76.000313,103.072754 76.000313,117.000000 
z"/>
<path fill="#FCFCFC" opacity="1.000000" stroke="none" 
	d="
M124.334946,134.335098 
	C134.152451,124.468605 143.719864,114.852165 153.947327,104.572311 
	C153.947327,121.575417 153.947327,137.583954 153.947327,153.926544 
	C137.918488,153.926544 121.774841,153.926544 104.422905,153.926544 
	C111.426117,147.037521 117.755501,140.811340 124.334946,134.335098 
z"/>
</svg>