<svg version="1.1" id="Layer_1" xmlns="http://www.w3.org/2000/svg" xmlns:xlink="http://www.w3.org/1999/xlink" x="0px" y="0px"
	 width="100%" viewBox="0 0 864 640" enable-background="new 0 0 864 640" xml:space="preserve">
<path fill="#000000" opacity="1.000000" stroke="none" 
	d="
M505.907166,309.000000 
	C505.871063,296.514832 505.941772,284.528076 505.761292,272.545105 
	C505.642609,264.665894 503.402985,262.387848 495.497955,261.326782 
	C494.008850,261.126953 492.240082,261.246002 492.188629,259.171936 
	C492.138184,257.136200 493.807465,256.829193 495.357727,256.860413 
	C513.290771,257.221008 531.320435,255.264542 549.132019,258.563141 
	C570.804138,262.576630 582.667297,275.718719 585.279419,297.781982 
	C586.761536,310.300537 586.510132,322.679047 582.869873,334.811981 
	C577.520020,352.642914 564.745728,361.738708 546.933716,364.245331 
	C529.887085,366.644257 512.700439,364.911804 495.581268,365.302185 
	C494.130432,365.335297 492.289276,365.443573 492.171295,363.333832 
	C492.058014,361.308319 493.760651,361.150848 495.275726,360.877808 
	C504.282593,359.254669 505.675720,357.764832 505.790894,348.451691 
	C505.951447,335.469299 505.879639,322.484039 505.907166,309.000000 
M535.152283,264.363708 
	C533.487854,264.352356 531.823364,264.321869 530.159058,264.333160 
	C524.111145,264.374146 522.515564,265.693939 521.578186,271.610504 
	C521.345581,273.078552 521.358276,274.594727 521.357483,276.088837 
	C521.345032,299.391327 521.361206,322.693848 521.331116,345.996277 
	C521.327881,348.515015 521.600891,350.957733 522.257507,353.389648 
	C522.943542,355.930481 524.449219,357.487579 527.101135,357.679932 
	C544.842468,358.966736 561.451477,353.687836 566.589539,332.325775 
	C570.017273,318.074554 569.865662,303.604858 566.526062,289.338226 
	C563.630371,276.967926 555.998352,268.799438 543.391907,265.770447 
	C540.973450,265.189331 538.495667,264.854797 535.152283,264.363708 
z"/>
<path fill="#000000" opacity="1.000000" stroke="none" 
	d="
M105.539383,358.595764 
	C112.225182,360.466919 118.482071,359.942657 124.634338,358.128601 
	C133.740387,355.443573 139.402313,348.107361 139.568008,337.387512 
	C139.907684,315.408752 139.818237,293.421661 139.723495,271.438812 
	C139.695587,264.964111 136.799789,262.147705 130.424316,261.351807 
	C128.720001,261.139038 126.228645,261.758820 126.395050,258.966156 
	C126.550941,256.349609 128.961838,256.826294 130.699112,256.818359 
	C140.358948,256.774139 150.019409,256.763123 159.678864,256.839661 
	C161.346817,256.852844 163.807190,256.182068 164.000824,258.891144 
	C164.201508,261.699066 161.745834,261.129791 160.035431,261.357544 
	C152.919708,262.305206 150.405823,265.415833 150.371613,273.936188 
	C150.292709,293.589386 150.344299,313.243134 150.331055,332.896637 
	C150.328918,336.058533 150.150833,339.184113 149.572754,342.330353 
	C146.981430,356.434326 140.766174,363.105682 126.806335,365.897858 
	C117.077377,367.843781 107.304947,367.762085 97.587708,365.521027 
	C83.305237,362.227112 75.709290,353.051941 74.619278,338.518555 
	C73.209129,319.716705 74.289062,300.902832 73.909477,282.099274 
	C73.838898,278.602997 73.907600,275.101837 73.757828,271.609558 
	C73.460358,264.673767 71.020386,262.132263 64.129562,261.346405 
	C62.405777,261.149811 59.981110,261.659790 60.214535,258.841248 
	C60.402802,256.568054 62.538074,256.816956 64.151909,256.812653 
	C75.810532,256.781555 87.469353,256.778961 99.127869,256.827484 
	C100.699081,256.834015 102.788681,256.470856 103.024094,258.852448 
	C103.269691,261.337128 101.230644,261.123657 99.597717,261.361359 
	C92.556442,262.386383 89.395264,265.324341 89.470306,272.551575 
	C89.698303,294.508240 88.061890,316.506134 90.387619,338.414948 
	C91.381516,347.777649 95.602196,355.213013 105.539383,358.595764 
z"/>
<path fill="#000000" opacity="1.000000" stroke="none" 
	d="
M246.000000,393.946472 
	C186.514175,393.951874 127.528336,393.960938 68.542503,393.953979 
	C66.548691,393.953735 64.544334,393.889099 62.564659,393.673218 
	C61.163769,393.520477 59.949577,392.850372 60.070698,391.139099 
	C60.190414,389.447662 61.467102,389.006439 62.879459,388.901672 
	C64.040161,388.815521 65.210182,388.840729 66.376076,388.840820 
	C267.828278,388.860107 469.280457,388.880463 670.732666,388.912811 
	C673.936584,388.913330 677.591614,388.159515 678.931213,393.947601 
	C534.513916,393.947601 390.506958,393.947601 246.000000,393.946472 
z"/>
<path fill="#000000" opacity="1.000000" stroke="none" 
	d="
M303.022644,300.901733 
	C311.135742,304.898285 318.910065,308.780579 325.459869,314.574005 
	C341.547485,328.803864 337.443176,354.268829 317.696198,362.722626 
	C308.489105,366.664246 298.762878,367.878693 288.852325,367.024811 
	C282.572449,366.483734 276.354065,365.260651 270.088715,364.503998 
	C267.625244,364.206451 266.862305,363.037689 266.550110,360.656006 
	C265.832550,355.181763 265.616730,349.704926 265.680023,344.204956 
	C265.698578,342.593475 265.384033,340.677155 267.716614,340.258728 
	C269.893829,339.868195 270.758606,341.363007 271.160614,343.061371 
	C274.687042,357.959625 297.918457,363.265076 310.523285,354.407471 
	C320.656891,347.286499 321.608246,334.551453 312.415283,326.193787 
	C306.806610,321.094757 299.942230,317.938873 293.302979,314.470947 
	C288.286163,311.850494 283.194092,309.397003 278.525391,306.130920 
	C268.515106,299.128082 265.206451,289.466553 267.160126,277.776398 
	C269.239685,265.333191 277.940033,259.277802 289.239441,256.908752 
	C301.395325,254.360123 313.705902,255.055679 325.904022,257.578491 
	C328.387024,258.092010 329.202942,259.303864 329.306366,261.620178 
	C329.528931,266.605286 329.954285,271.581696 330.148895,276.567444 
	C330.215271,278.268402 330.832245,280.489716 328.268555,281.085693 
	C325.583374,281.709930 324.917145,279.774597 324.276337,277.740173 
	C319.325562,262.022797 298.953613,259.948029 289.274719,265.636963 
	C278.827606,271.777435 277.758575,284.131805 287.119141,291.828949 
	C291.797241,295.675781 297.248779,298.202881 303.022644,300.901733 
z"/>
<path fill="#000000" opacity="1.000000" stroke="none" 
	d="
M711.044678,395.408752 
	C704.109009,395.601501 697.935059,394.439819 692.275940,391.272522 
	C680.601135,384.738434 679.807739,371.580505 690.537231,363.554474 
	C691.066284,363.158691 691.585327,362.749481 692.591187,361.975555 
	C685.626648,354.401123 687.535828,346.898193 693.510376,339.468567 
	C686.501953,332.140503 684.727417,323.592743 686.563538,313.986450 
	C688.063904,306.136963 692.584900,301.057129 700.032654,298.785736 
	C709.167847,295.999634 718.379089,295.815613 727.214966,299.645447 
	C729.726868,297.898071 730.054199,295.226288 731.271790,293.120697 
	C733.541809,289.194824 736.432007,286.128601 741.107117,285.366089 
	C744.262024,284.851532 747.184692,285.528656 749.036011,288.327820 
	C750.714844,290.866394 750.820618,293.684082 749.223877,296.373932 
	C747.528748,299.229553 744.744690,299.568359 741.794861,299.320068 
	C740.979065,299.251373 740.114380,299.112549 739.386963,298.765381 
	C737.231628,297.736633 735.355469,297.376465 733.717468,299.737396 
	C732.104187,302.062744 732.743713,303.892548 734.159729,306.079041 
	C738.457214,312.714874 739.346375,319.979645 737.496399,327.623413 
	C735.693359,335.073273 731.035828,339.857330 723.811401,342.174255 
	C716.674927,344.462952 709.379028,344.651123 702.125732,343.044556 
	C699.197998,342.396057 697.800964,343.081421 696.920044,345.867523 
	C696.033813,348.670349 697.172058,350.309387 699.446045,351.612183 
	C701.428406,352.747894 703.596375,352.637970 705.760681,352.727722 
	C714.730774,353.099731 723.689758,352.358887 732.692261,353.402618 
	C750.756653,355.497009 751.034424,374.124207 743.121582,383.659149 
	C736.502808,391.634796 727.503540,394.624451 717.526672,395.320648 
	C715.535217,395.459595 713.529053,395.388458 711.044678,395.408752 
M735.480652,379.864746 
	C739.790710,370.520569 736.119690,364.490479 725.908569,364.331635 
	C718.416260,364.215088 710.918457,364.404694 703.427917,364.240845 
	C698.664551,364.136688 695.981628,366.770142 694.360474,370.691711 
	C691.820374,376.836151 695.236267,383.870605 702.276123,387.519897 
	C712.154236,392.640442 727.940369,389.256256 735.480652,379.864746 
M723.871033,311.769135 
	C721.055054,305.115997 717.558716,302.734619 711.013123,303.011536 
	C705.025330,303.264832 701.172913,305.701752 699.957336,311.215240 
	C698.479919,317.916473 698.426147,324.766510 701.372375,331.231049 
	C703.711609,336.363861 708.034302,338.385010 714.634521,337.713135 
	C719.841675,337.183075 723.355225,333.968628 724.613037,328.721619 
	C725.921204,323.264771 725.793152,317.871185 723.871033,311.769135 
z"/>
<path fill="#000000" opacity="1.000000" stroke="none" 
	d="
M162.841553,292.285522 
	C163.948639,287.829651 164.690399,283.698914 166.092911,279.806244 
	C171.568909,264.607819 183.170166,257.165985 198.655930,255.823563 
	C210.280746,254.815857 221.904587,255.717026 233.341370,258.615814 
	C237.114059,259.572021 238.470444,261.216370 238.435120,265.084656 
	C238.385071,270.561401 239.086975,276.041229 239.276184,281.526306 
	C239.333008,283.174194 240.069626,285.493378 237.461197,286.064484 
	C234.765961,286.654572 234.128174,284.626770 233.517563,282.612946 
	C232.594955,279.570129 231.318100,276.686554 229.446136,274.084137 
	C222.155365,263.948456 211.995270,261.231018 200.355499,263.452576 
	C190.267517,265.377991 184.606903,272.430237 182.097977,281.920807 
	C177.627930,298.829681 177.581665,315.891602 182.590042,332.649017 
	C189.025162,354.180145 205.888733,360.626251 225.321533,358.216125 
	C229.728043,357.669586 234.035156,356.321442 238.373215,355.345642 
	C240.394455,361.770294 239.955093,362.874939 234.024506,364.307556 
	C222.283447,367.143829 210.399429,368.561005 198.447235,365.882904 
	C179.792496,361.703003 169.641006,348.977264 164.833237,331.321716 
	C161.379669,318.639221 160.988007,305.719330 162.841553,292.285522 
z"/>
<path fill="#000000" opacity="1.000000" stroke="none" 
	d="
M451.851654,308.279480 
	C447.099731,304.018341 442.460938,303.896942 437.885803,308.100067 
	C430.685608,314.714813 427.059906,323.219421 426.414093,332.839935 
	C425.991150,339.140350 426.275909,345.493042 426.353729,351.820984 
	C426.437103,358.600830 427.684418,360.102203 434.329742,361.706573 
	C435.654510,362.026398 437.049500,362.111053 436.794800,364.689087 
	C425.717896,364.689087 414.592651,364.689087 403.449707,364.689087 
	C403.368103,361.802612 405.059662,361.852783 406.501678,361.672180 
	C411.278717,361.073944 413.644867,358.134369 413.684937,353.580017 
	C413.808044,339.591858 413.780426,325.601532 413.686859,311.612854 
	C413.657745,307.261536 410.952789,305.044250 406.863434,304.322906 
	C405.400116,304.064789 403.563721,304.122559 403.540039,302.094849 
	C403.516693,300.094910 405.314728,299.890717 406.796417,299.775238 
	C413.044800,299.288147 419.115479,297.247620 425.643860,297.339569 
	C427.036621,302.313782 425.870453,307.170288 426.575470,312.615051 
	C428.268127,310.141937 429.615509,308.032410 431.102020,306.025909 
	C437.188995,297.809570 447.974731,294.610443 457.406738,298.285065 
	C462.933105,300.438080 464.713440,305.089050 465.348511,310.528137 
	C466.628143,321.487671 465.850525,332.483490 466.070190,343.460907 
	C466.136810,346.790619 466.156769,350.121338 466.193634,353.451630 
	C466.245270,358.118866 468.411926,361.012238 473.166138,361.647247 
	C474.879974,361.876221 476.593750,361.958954 476.165466,364.857666 
	C465.191315,364.857666 454.233307,364.857666 443.311249,364.857666 
	C442.791016,361.756775 444.738434,361.866089 446.336090,361.646790 
	C450.358673,361.094574 453.134155,358.538422 453.231873,354.829590 
	C453.625549,339.890106 454.719116,324.916687 452.583984,310.008881 
	C452.515289,309.529297 452.233673,309.080200 451.851654,308.279480 
z"/>
<path fill="#000000" opacity="1.000000" stroke="none" 
	d="
M352.071625,332.838898 
	C359.317596,329.392029 366.830231,328.826691 374.238251,327.987396 
	C377.620667,327.604156 378.916840,326.262024 378.698822,322.919861 
	C378.440186,318.954712 378.937469,314.968201 377.765900,311.034546 
	C375.976379,305.026154 372.635162,302.673981 365.799927,303.002167 
	C359.901642,303.285370 358.368195,304.794556 357.371063,311.814758 
	C356.927887,314.934998 355.529114,317.236694 352.490540,318.058838 
	C349.634552,318.831573 346.789948,318.471619 344.697540,316.065186 
	C342.664246,313.726746 342.375061,311.054321 343.477203,308.133759 
	C344.946594,304.240082 348.043640,301.965698 351.544922,300.375580 
	C360.860443,296.144989 370.482819,295.552856 380.170837,299.014893 
	C386.475342,301.267822 389.477966,306.221802 390.348389,312.627686 
	C392.172394,326.051208 390.880188,339.545044 391.189240,353.003326 
	C391.360596,360.464874 391.229004,360.479950 398.413757,361.773743 
	C399.592224,361.985962 400.842010,362.054260 400.821899,363.659943 
	C400.804535,365.045929 399.773041,365.618988 398.635254,366.053680 
	C390.047363,369.334534 382.286316,366.536407 378.181091,358.647614 
	C370.523071,365.979492 361.744965,369.088470 351.354340,365.468231 
	C344.587708,363.110657 341.345825,357.806091 340.875244,351.020660 
	C340.296661,342.677734 344.237366,336.680389 352.071625,332.838898 
M362.279785,359.428040 
	C366.828613,360.337646 370.441986,358.479645 373.437622,355.345520 
	C378.719604,349.819244 379.102295,342.902954 378.578827,335.805725 
	C378.447327,334.022858 377.192505,333.788727 375.711365,333.919067 
	C371.246002,334.311951 366.832703,334.796875 362.705414,336.832001 
	C358.227264,339.040161 354.937866,342.212891 354.790619,347.385468 
	C354.644562,352.515228 356.693390,356.743835 362.279785,359.428040 
z"/>
<path fill="#000000" opacity="1.000000" stroke="none" 
	d="
M808.150391,329.253632 
	C808.249756,335.738922 807.573181,341.661102 805.597778,347.389496 
	C801.334351,359.752625 791.526611,367.073669 777.836609,366.947327 
	C766.794189,366.845367 756.266602,363.613556 750.306946,349.300995 
	C745.548157,337.872559 745.624207,326.233948 750.073059,314.763367 
	C754.790039,302.601562 767.154907,295.395691 779.981079,296.910095 
	C795.475281,298.739502 805.200867,307.990417 807.278931,322.872894 
	C807.554810,324.848511 807.840759,326.822693 808.150391,329.253632 
M761.157593,332.472229 
	C761.023743,338.665558 761.601318,344.771332 763.971924,350.549957 
	C766.397949,356.463776 770.175049,360.772919 777.231628,360.806915 
	C783.809326,360.838623 788.385925,357.841034 790.977905,350.601166 
	C795.436584,338.147308 795.283936,325.462555 791.026611,312.999298 
	C788.939148,306.888245 784.530334,303.011322 777.599243,302.985199 
	C771.258606,302.961334 766.531433,306.566223 763.872559,313.391327 
	C761.600159,319.224182 760.991028,325.305389 761.157593,332.472229 
z"/>
<path fill="#000000" opacity="1.000000" stroke="none" 
	d="
M644.208130,297.797424 
	C652.870056,296.024292 660.858521,296.484100 668.296936,300.804291 
	C675.217163,304.823547 679.531799,314.400909 678.368286,322.202881 
	C677.891724,325.398346 675.750916,325.181030 673.606018,325.188660 
	C662.950806,325.226624 652.294922,325.277466 641.640381,325.190460 
	C638.527710,325.165039 637.205322,326.120026 637.242126,329.504028 
	C637.404968,344.482208 648.356384,357.745026 662.810974,360.397797 
	C667.235596,361.209808 671.340454,359.606415 675.884094,359.199799 
	C677.463135,362.263123 676.805420,364.401001 673.444702,365.194031 
	C661.652222,367.976685 650.013489,368.096497 638.993774,362.207764 
	C631.981689,358.460663 627.907043,352.280273 625.765869,344.798523 
	C623.200745,335.835083 623.057556,326.743317 625.062683,317.663086 
	C627.335693,307.369568 633.164062,300.319702 644.208130,297.797424 
M663.740967,312.760529 
	C660.951050,304.696899 655.711487,301.463074 648.280701,303.409332 
	C642.935120,304.809418 640.337158,308.989990 638.279358,313.700989 
	C636.739929,317.225433 637.391113,319.026672 641.601135,318.949371 
	C647.735229,318.836731 653.876526,318.799469 660.007996,318.970764 
	C664.288269,319.090363 665.424866,317.347412 663.740967,312.760529 
z"/>
<path fill="#000000" opacity="1.000000" stroke="none" 
	d="
M614.107666,300.482544 
	C614.148499,317.230225 614.143677,333.529877 614.183533,349.829407 
	C614.205566,358.850464 614.239624,358.849335 623.013550,361.942505 
	C623.883057,362.249023 624.334290,362.877655 624.418030,365.237274 
	C613.335449,365.424896 602.288635,365.486359 591.276367,365.156403 
	C591.049316,361.746765 592.778931,361.859924 594.209656,361.671234 
	C599.234924,361.008423 601.504089,357.704041 601.563171,353.095764 
	C601.737854,339.459656 601.737488,325.818420 601.563538,312.182312 
	C601.504456,307.556152 598.589600,304.992493 594.048950,304.305420 
	C592.531921,304.075867 590.831970,303.864349 591.080017,301.787201 
	C591.274109,300.161346 592.811768,299.973969 594.138794,299.781799 
	C599.556580,298.997192 604.993713,298.328644 610.388550,297.410919 
	C612.733765,297.011932 613.902893,297.674042 614.107666,300.482544 
z"/>
<path fill="#000000" opacity="1.000000" stroke="none" 
	d="
M754.162720,393.943817 
	C751.296753,393.704559 748.692993,394.699188 746.458862,392.762085 
	C747.740234,389.549377 750.390930,388.910583 753.331116,388.901581 
	C769.656189,388.851593 785.981384,388.820526 802.306519,388.816345 
	C804.295227,388.815826 806.850342,388.701111 806.764648,391.494263 
	C806.678467,394.302643 804.007751,393.932526 802.111633,393.937714 
	C786.285950,393.980927 770.460144,393.947968 754.162720,393.943817 
z"/>
<path fill="#000000" opacity="1.000000" stroke="none" 
	d="
M614.771729,271.476868 
	C616.860229,275.896698 616.511963,279.736115 613.021179,282.663849 
	C609.947754,285.241547 606.241760,285.400848 602.766113,283.407257 
	C599.367310,281.457703 598.276489,278.212860 598.823730,274.430115 
	C599.297974,271.151825 601.222961,268.836609 604.357910,268.038391 
	C608.247375,267.048157 611.995178,267.372894 614.771729,271.476868 
z"/>
</svg>