<svg version="1.1" id="Layer_1" xmlns="http://www.w3.org/2000/svg" xmlns:xlink="http://www.w3.org/1999/xlink" x="0px" y="0px"
	 width="100%" viewBox="0 0 1280 720" enable-background="new 0 0 1280 720" xml:space="preserve">
<path fill="#FFFFFF" opacity="1.000000" stroke="none" 
	d="
M1281.000000,10.000000 
	C1281.000000,243.694702 1281.000000,477.389404 1280.544067,711.542114 
	C853.725403,712.000122 427.362701,712.000061 1.000000,712.000000 
	C1.000000,478.305298 1.000000,244.610611 1.455951,10.457837 
	C428.274597,9.999846 854.637329,9.999923 1281.000000,10.000000 
M423.815674,370.182343 
	C423.815674,370.182343 423.688019,370.224243 423.915009,370.916382 
	C424.832672,372.856323 425.750336,374.796234 426.454285,377.357819 
	C426.618683,378.208374 426.783081,379.058899 426.788422,380.710175 
	C426.856537,389.128906 426.924622,397.547607 426.785583,406.708649 
	C426.739532,408.230103 426.693512,409.751587 426.236633,411.699158 
	C426.128845,412.464722 426.021057,413.230255 425.378418,414.609375 
	C425.285095,414.864166 425.191803,415.118927 424.456665,415.674164 
	C422.282562,416.805664 420.108459,417.937164 417.934357,419.068665 
	C418.136047,419.483459 418.337738,419.898254 418.539459,420.313049 
	C428.645203,420.313049 438.750977,420.313049 448.856720,420.313049 
	C449.201599,419.975250 449.546478,419.637451 449.891327,419.299652 
	C443.848206,417.086823 439.955933,413.522797 440.871246,406.094055 
	C440.788879,398.074799 440.706512,390.055542 440.808990,381.148376 
	C439.578918,363.058594 432.134857,356.172394 415.286713,358.149231 
	C414.533325,358.401825 413.779907,358.654419 412.336609,358.809113 
	C408.863922,360.218628 405.391235,361.628143 401.819794,362.546539 
	C401.729706,362.405945 401.639618,362.265381 401.827057,361.427856 
	C402.012695,359.185974 401.555573,357.724670 398.837372,358.907959 
	C397.348663,359.556030 395.839996,360.158325 393.880859,360.667603 
	C393.558319,360.696228 393.264893,360.804077 392.616333,360.833466 
	C392.094330,360.952179 391.572296,361.070892 390.344116,361.138733 
	C389.906281,361.295380 389.468414,361.452026 388.175262,361.426056 
	C385.543091,361.595184 382.910889,361.764313 378.504974,362.047394 
	C380.408234,363.765961 381.242767,365.175049 382.240540,365.302063 
	C385.748474,365.748749 387.604065,367.594025 388.095795,371.887756 
	C388.166046,383.932922 388.236328,395.978058 388.048096,408.745697 
	C389.158234,415.227753 382.599884,416.331726 378.273041,420.682983 
	C389.413300,420.682983 398.829346,420.702911 408.244843,420.639679 
	C408.896301,420.635284 409.543610,420.011536 410.192871,419.675812 
	C409.699127,418.980774 409.288239,417.764801 408.698914,417.671112 
	C402.660492,416.711090 402.242279,412.193268 402.197632,407.536072 
	C402.109955,398.388885 402.143402,389.240479 402.141968,380.092560 
	C402.140076,368.101471 402.146423,368.101471 414.740906,366.665466 
	C415.519623,366.689209 416.298370,366.712952 417.657227,367.045258 
	C419.111298,367.580444 420.565369,368.115631 422.241150,369.020935 
	C422.241150,369.020935 422.657623,369.133514 422.828827,369.689392 
	C423.144684,369.896545 423.460541,370.103699 423.815674,370.182343 
M673.120544,412.874329 
	C673.120544,412.874329 673.268799,412.873260 673.163696,411.952881 
	C672.941528,409.467194 672.523315,406.981171 672.527344,404.495850 
	C672.568604,379.006439 672.681580,353.517120 672.758118,328.027771 
	C672.761414,326.933105 672.605713,325.838013 672.502808,324.457550 
	C667.445068,325.400177 662.738586,326.277313 657.248535,327.127777 
	C656.769775,327.318420 656.291077,327.509094 655.145264,327.527863 
	C653.711304,327.995239 652.277344,328.462585 650.843445,328.929932 
	C650.904724,329.472321 650.966064,330.014709 651.027405,330.557098 
	C652.673767,330.684845 654.320129,330.812592 656.707275,331.306549 
	C660.387146,340.260254 657.927551,349.466827 658.673767,358.873199 
	C656.676941,358.575989 655.550842,358.386078 654.418823,358.243134 
	C629.395325,355.084412 612.916321,369.581360 614.024902,393.773529 
	C614.896118,412.785736 629.035278,424.575928 647.071472,421.060699 
	C650.909790,420.312622 654.544739,418.520782 658.578064,417.102692 
	C658.806458,418.344513 659.053467,419.687836 659.356140,421.333344 
	C666.548828,420.221893 673.423584,419.159546 680.298401,418.097198 
	C680.235535,417.724487 680.172668,417.351776 680.109863,416.979065 
	C678.958862,416.677979 677.807861,416.376862 676.215454,415.653229 
	C675.201050,414.680603 674.186646,413.707977 673.120544,412.874329 
M281.449005,357.169098 
	C281.113586,357.596008 280.778198,358.022888 279.838745,358.760895 
	C276.532532,361.131897 273.226318,363.502899 268.744751,366.716827 
	C272.878540,367.071411 275.307220,367.279724 278.115875,367.520630 
	C278.115875,369.459473 278.117615,371.262360 278.115601,373.065247 
	C278.103851,383.556366 277.950317,394.049896 278.133118,404.537628 
	C278.238403,410.578278 279.923920,416.135559 285.647339,419.404083 
	C292.474426,423.302856 304.844421,422.049469 310.654938,416.823914 
	C311.641602,415.936584 311.988007,414.337311 313.246521,411.847778 
	C310.877289,412.575806 310.254852,412.755585 309.639801,412.957733 
	C297.997009,416.784210 292.327484,412.806732 292.192413,400.610992 
	C292.107574,392.951416 292.171783,385.290192 292.169800,377.629700 
	C292.168915,374.223480 292.169647,370.817261 292.169647,367.017426 
	C299.520020,367.017426 306.114410,367.017426 312.749908,367.017426 
	C312.749908,364.350677 312.749908,362.098755 312.749908,359.215240 
	C305.763153,359.215240 299.035950,359.215240 291.925293,359.215240 
	C291.925293,354.327026 291.925293,350.072266 291.925293,345.817535 
	C291.443146,345.556091 290.960968,345.294647 290.478821,345.033203 
	C287.637878,349.008942 284.796936,352.984680 281.449005,357.169098 
M570.189758,361.376251 
	C569.525146,361.384949 568.795654,361.219330 568.208984,361.437561 
	C566.869934,361.935638 565.600708,362.621674 564.303162,363.231354 
	C565.463135,364.062958 566.522522,365.363708 567.802002,365.638031 
	C571.605591,366.453430 572.440308,369.174500 572.448486,372.326050 
	C572.480042,384.460571 572.421143,396.595825 572.307251,408.729950 
	C572.266357,413.088348 570.887390,416.541443 565.873535,417.427856 
	C565.097900,417.565002 564.561279,419.053772 563.403198,420.599274 
	C574.631104,420.599274 584.584717,420.642883 594.536682,420.534058 
	C595.570007,420.522766 596.593445,419.605774 597.621460,419.108978 
	C596.703857,418.437408 595.865479,417.354889 594.855896,417.160339 
	C587.748718,415.790436 586.799561,415.036896 586.639709,407.832214 
	C586.403748,397.194122 586.495850,386.548737 586.453674,375.906433 
	C586.427124,369.205627 588.525513,367.400360 595.163879,368.456787 
	C596.473022,368.665100 597.757629,369.026978 599.135864,369.332306 
	C599.135864,369.332306 599.208923,369.372955 599.637695,369.943054 
	C605.336426,375.103607 605.336670,375.103729 609.053284,368.182007 
	C609.288818,367.743378 609.462585,367.260834 609.755005,366.865265 
	C612.448303,363.222595 610.859985,361.055573 607.212708,359.765656 
	C600.668884,357.451202 594.481384,358.410736 588.632507,362.028625 
	C588.129761,362.339600 587.547302,362.521606 586.915527,362.801880 
	C586.377991,361.137756 585.962769,359.852386 585.545227,358.559784 
	C581.461914,359.470764 577.747314,360.299469 573.258240,361.052246 
	C572.508728,361.218109 571.759277,361.383972 570.189758,361.376251 
M1069.686890,391.169952 
	C1070.129395,390.781647 1070.571899,390.393341 1071.238770,389.272278 
	C1071.238770,386.679474 1071.238770,384.086670 1071.238770,381.110962 
	C1062.925049,381.110962 1055.312744,381.110962 1047.593506,381.110962 
	C1047.593506,375.466095 1047.593506,370.218018 1047.593506,364.468414 
	C1056.898315,364.468414 1065.974243,364.468414 1075.189941,364.468414 
	C1075.189941,360.919037 1075.189941,357.880646 1075.189941,354.847656 
	C1061.901855,354.847656 1048.984131,354.847656 1036.001465,354.847656 
	C1036.001465,376.875275 1036.001465,398.628479 1036.001465,420.400208 
	C1049.550781,420.400208 1062.812988,420.400208 1076.347534,420.400208 
	C1076.347534,417.184937 1076.347534,414.245148 1076.347534,410.705505 
	C1066.814941,410.705505 1057.264282,410.705505 1047.719482,410.705505 
	C1047.719482,403.868988 1047.719482,397.633728 1047.719482,390.979309 
	C1052.028687,390.979309 1056.010498,390.979309 1060.654663,391.170441 
	C1061.105469,391.106659 1061.556152,391.042908 1062.678711,391.189545 
	C1064.783081,391.118683 1066.887329,391.047821 1069.686890,391.169952 
M239.613144,420.916016 
	C240.066956,420.825989 240.520782,420.735992 241.775665,420.794739 
	C242.431503,420.684265 243.090881,420.591522 243.742630,420.460754 
	C254.110184,418.379791 262.147858,413.646881 264.390167,402.315887 
	C266.640503,390.944397 263.009796,382.029144 253.284805,375.640717 
	C250.919327,374.086853 248.565826,372.513641 246.234467,370.909180 
	C241.712280,367.796906 237.027344,364.884369 232.748535,361.465210 
	C228.159012,357.797821 227.629791,352.608276 229.217484,347.334106 
	C230.713104,342.365784 234.885193,340.473694 239.636856,340.194855 
	C243.427002,339.972443 247.298111,340.122955 251.058289,340.646515 
	C255.971176,341.330505 259.165009,344.142670 260.068451,349.315826 
	C260.260529,350.415802 261.413757,351.347931 262.124176,352.357361 
	C262.480316,352.135834 262.836456,351.914307 263.192596,351.692749 
	C263.192596,345.828369 263.192596,339.963989 263.192596,334.181030 
	C251.854263,331.677155 238.511536,331.633453 231.208969,334.001343 
	C214.289536,339.487518 209.696213,360.191132 223.145508,371.863739 
	C229.273148,377.181946 236.425339,381.305634 242.959045,386.177399 
	C245.322830,387.939911 247.678360,390.014587 249.277878,392.446533 
	C254.835388,400.896393 250.203247,411.530060 240.244568,412.915161 
	C236.044754,413.499268 231.596436,413.211975 227.382446,412.549194 
	C222.005692,411.703491 218.470581,408.449219 217.417999,402.769196 
	C217.208817,401.640320 215.873138,400.720184 215.056915,399.703796 
	C213.963776,405.539642 213.792175,410.525818 214.089081,415.483887 
	C214.159912,416.666809 215.689636,418.623840 216.726898,418.749329 
	C224.100113,419.641571 231.519730,420.150482 239.613144,420.916016 
M340.669891,365.744232 
	C341.136475,365.751282 341.603027,365.758331 342.694397,366.076538 
	C344.067932,366.655090 345.548248,367.063019 346.795593,367.843262 
	C351.016144,370.483398 352.246765,374.867950 351.271942,379.143494 
	C350.860443,380.948303 347.363342,382.395538 345.002655,383.340057 
	C339.603668,385.500214 333.862305,386.856384 328.580566,389.247223 
	C316.637878,394.653137 315.281433,411.477875 326.138885,418.697632 
	C333.039795,423.286499 340.560577,422.054199 347.282990,418.746796 
	C350.394653,417.215820 352.077484,417.344391 354.639404,418.898651 
	C361.184570,422.869476 368.191589,421.549591 372.797974,415.571381 
	C373.399841,414.790192 373.459839,413.591461 373.770844,412.586121 
	C372.750519,412.426880 371.671021,411.971863 370.720673,412.162170 
	C367.467957,412.813385 365.952576,411.219177 365.562286,408.321991 
	C365.275085,406.190247 365.303680,404.008942 365.286804,401.848999 
	C365.208740,391.867493 365.459015,381.872192 365.001160,371.908966 
	C364.707397,365.516479 360.844482,361.012848 354.777435,359.025543 
	C347.750488,356.723877 340.444153,356.584015 333.921936,360.251495 
	C330.476105,362.188995 327.813110,365.684540 325.198181,368.812347 
	C324.578247,369.553864 325.571411,371.644012 326.000061,374.152527 
	C331.832306,367.395386 332.851074,366.811768 340.669891,365.744232 
M988.642151,386.976349 
	C994.295105,397.161438 999.888306,407.380737 1005.672729,417.490570 
	C1006.440308,418.832153 1008.076843,420.305817 1009.491394,420.518616 
	C1012.549500,420.978668 1015.724792,420.660187 1019.099670,420.660187 
	C1019.099670,398.518982 1019.099670,376.780304 1019.099670,355.003876 
	C1015.323914,355.003876 1011.805176,355.003876 1008.672485,355.003876 
	C1008.672485,371.289703 1008.672485,387.171387 1008.672485,403.582397 
	C1008.059692,402.705109 1007.567932,402.129028 1007.215515,401.477570 
	C999.376953,386.988708 991.472473,372.534302 983.802612,357.956451 
	C982.424744,355.337463 980.867676,354.302185 978.014832,354.527374 
	C975.413086,354.732788 972.782471,354.570892 970.025635,354.570892 
	C970.025635,376.815765 970.025635,398.562408 970.025635,420.406128 
	C973.674805,420.406128 977.098816,420.406128 980.407593,420.406128 
	C980.407593,403.904572 980.407593,387.667633 980.407593,370.753723 
	C983.202942,376.328064 985.719055,381.345428 988.642151,386.976349 
M836.264771,402.501312 
	C836.264771,392.850311 836.264771,383.199280 836.264771,372.811005 
	C837.224304,374.296021 837.950012,375.272797 838.525085,376.331390 
	C845.992920,390.077484 853.403625,403.854919 860.950745,417.557220 
	C861.648438,418.823883 863.086365,420.349731 864.341492,420.512207 
	C867.576233,420.931091 870.901184,420.652405 874.395264,420.652405 
	C874.395264,398.407257 874.395264,376.698944 874.395264,354.847656 
	C870.640076,354.847656 867.221008,354.847656 863.970459,354.847656 
	C863.970459,371.077148 863.970459,387.044983 863.970459,403.816803 
	C863.180847,402.589844 862.725769,401.976624 862.367004,401.311432 
	C854.546265,386.811615 846.769043,372.288055 838.868103,357.832153 
	C838.159058,356.534851 836.759277,354.906219 835.513184,354.747864 
	C832.141724,354.319580 828.680176,354.601166 825.238647,354.601166 
	C825.238647,376.912964 825.238647,398.525970 825.238647,420.313904 
	C829.005859,420.313904 832.525146,420.313904 836.265320,420.313904 
	C836.265320,414.465881 836.265320,408.982727 836.264771,402.501312 
M760.151123,364.687866 
	C751.908508,378.512604 751.406921,392.947937 758.443726,407.087891 
	C767.294678,424.873077 792.963684,427.224243 804.917542,411.638153 
	C812.753845,401.420776 813.467163,389.556519 811.183472,377.390045 
	C809.014221,365.833679 802.713562,357.358551 790.999695,354.474792 
	C779.180298,351.565033 768.515808,353.937256 760.151123,364.687866 
M497.243835,384.967865 
	C497.178894,388.125549 496.829926,391.307861 497.101471,394.436340 
	C497.962616,404.357544 501.485870,412.837891 510.714264,417.982880 
	C524.039368,425.411804 542.661499,422.076080 551.526794,410.649841 
	C560.765625,398.742157 560.351379,376.817688 550.573669,366.445709 
	C548.889038,364.658691 546.875000,363.052490 544.742615,361.837433 
	C524.650513,350.388611 502.034241,361.065826 497.243835,384.967865 
M506.004822,329.674225 
	C498.276581,322.778259 489.326477,323.019684 480.214539,325.660248 
	C471.809204,328.096100 467.482147,334.394897 466.054993,342.720428 
	C465.382904,346.641083 464.911163,350.681030 465.076904,354.636414 
	C465.242096,358.577484 463.917389,360.790588 460.264313,362.195465 
	C458.763062,362.772827 457.702820,364.496948 456.441956,365.699432 
	C456.734711,366.076019 457.027435,366.452606 457.320190,366.829193 
	C459.733276,367.011414 462.146393,367.193665 464.594452,367.378540 
	C464.594452,381.703552 464.664032,395.663696 464.550781,409.622375 
	C464.518127,413.649963 462.711884,416.609650 458.357910,417.556396 
	C457.569763,417.727783 457.002777,418.916199 456.333649,419.635040 
	C457.181244,419.934082 458.026825,420.486481 458.876709,420.493256 
	C468.030548,420.565887 477.185791,420.608032 486.338531,420.493256 
	C487.496887,420.478760 488.643402,419.518311 489.795410,418.996155 
	C488.766876,418.412445 487.800079,417.509979 486.699799,417.296997 
	C479.771759,415.956116 479.032654,415.428741 478.899719,408.164093 
	C478.665131,395.339966 478.727264,382.510254 478.699554,369.682800 
	C478.697906,368.919373 478.999634,368.155273 479.219055,367.111511 
	C483.591858,367.111511 487.714783,367.111511 491.985107,367.111511 
	C491.985107,364.368988 491.985107,361.980408 491.985107,359.076904 
	C487.397003,359.076904 483.160522,359.076904 479.087219,359.076904 
	C479.087219,352.245911 478.898560,345.929504 479.156677,339.631348 
	C479.316162,335.740936 481.056305,332.468994 485.246185,331.435730 
	C489.447876,330.399536 493.196472,331.249573 495.994598,334.819458 
	C497.091919,336.219421 498.091461,337.696045 499.596313,339.774078 
	C501.934265,336.350525 503.962769,333.380096 506.004822,329.674225 
M902.750427,374.500336 
	C902.750427,368.040009 902.750427,361.579712 902.750427,354.902527 
	C898.619507,354.902527 894.901978,354.902527 891.281799,354.902527 
	C891.281799,376.959595 891.281799,398.682770 891.281799,420.389648 
	C904.378296,420.389648 917.114990,420.389648 929.872803,420.389648 
	C929.872803,417.048157 929.872803,414.000244 929.872803,410.686584 
	C920.748962,410.686584 911.971313,410.686584 902.750366,410.686584 
	C902.750366,398.775177 902.750366,387.137695 902.750427,374.500336 
M941.468262,418.002441 
	C942.295105,418.890961 943.046692,420.441620 943.962585,420.545624 
	C946.874512,420.876251 949.847534,420.667999 952.816528,420.667999 
	C952.816528,398.381500 952.816528,376.553070 952.816528,354.933655 
	C948.842957,354.933655 945.254089,354.933655 941.482544,354.933655 
	C941.482544,375.881714 941.482544,396.485626 941.468262,418.002441 
M720.184387,403.500427 
	C720.184387,372.568970 720.184387,341.637482 720.184387,310.606018 
	C718.084351,310.606018 716.362305,310.606018 714.509155,310.606018 
	C714.509155,348.826508 714.509155,386.708679 714.509155,424.727234 
	C716.488037,424.727234 718.221680,424.727234 720.184387,424.727234 
	C720.184387,417.795685 720.184387,411.148010 720.184387,403.500427 
M807.295410,632.738708 
	C811.510193,626.120605 810.284912,623.148743 805.137024,620.390625 
	C802.094299,618.760498 797.779663,619.379028 794.031128,619.312012 
	C793.389038,619.300476 792.163086,620.916748 792.146423,621.798828 
	C791.997620,629.676331 792.059753,637.557800 792.059753,645.913330 
	C796.548157,644.482300 795.965454,641.635803 795.877136,638.836792 
	C795.839050,637.629761 796.556824,636.398865 796.931152,635.178772 
	C798.369568,635.647705 800.362732,635.684875 801.132507,636.674011 
	C802.805542,638.824158 803.663025,641.594238 805.238831,643.840820 
	C806.023376,644.959412 807.656189,645.483032 808.905273,646.275757 
	C808.506958,642.743469 807.096680,640.320068 806.285278,637.710449 
	C805.865051,636.358948 806.506104,634.677551 807.295410,632.738708 
M860.983948,631.117981 
	C859.346863,624.320435 854.024048,626.112915 849.524170,626.475952 
	C848.711121,623.123291 847.972900,620.079407 847.126709,616.590088 
	C846.035278,617.450745 845.351501,617.735168 845.346619,618.030823 
	C845.203857,626.671387 845.058350,635.313904 845.173462,643.952698 
	C845.182861,644.659607 847.042419,645.341797 848.820618,646.575500 
	C846.865234,631.434937 848.798828,627.700317 857.000000,629.970093 
	C857.000000,632.806274 856.998901,635.773926 857.000244,638.741516 
	C857.002869,644.897888 857.003418,644.897888 860.999573,645.436768 
	C860.999573,640.914490 860.999573,636.458923 860.983948,631.117981 
M762.997559,634.440125 
	C762.997620,643.553528 762.997620,643.553528 766.929382,644.787842 
	C766.929382,636.021057 766.968750,627.463013 766.844177,618.907227 
	C766.835510,618.311707 765.609619,617.733887 764.949768,617.147827 
	C764.308411,617.932617 763.144531,618.696411 763.111938,619.505676 
	C762.925293,624.150818 763.006958,628.806702 762.997559,634.440125 
z"/>
<path fill="#000000" opacity="1.000000" stroke="none" 
	d="
M1281.000000,9.532969 
	C854.637329,9.999923 428.274597,9.999846 1.455951,9.999884 
	C1.000000,7.001004 1.000000,4.002007 1.000000,1.034292 
	C427.666656,1.034292 854.333313,1.034292 1281.000000,1.034292 
	C1281.000000,3.734369 1281.000000,6.400154 1281.000000,9.532969 
z"/>
<path fill="#000000" opacity="1.000000" stroke="none" 
	d="
M1.000000,712.467041 
	C427.362701,712.000061 853.725403,712.000122 1280.544067,712.000122 
	C1281.000000,714.999023 1281.000000,717.997986 1281.000000,720.965698 
	C854.333313,720.965698 427.666656,720.965698 1.000000,720.965698 
	C1.000000,718.265625 1.000000,715.599854 1.000000,712.467041 
z"/>
<path fill="#8A0824" opacity="1.000000" stroke="none" 
	d="
M655.812317,327.699768 
	C656.291077,327.509094 656.769775,327.318420 657.937744,327.395020 
	C660.750488,327.603394 662.925293,327.818573 664.987671,327.432678 
	C670.490845,326.402985 671.009399,326.707581 671.012146,332.342834 
	C671.023987,356.605621 670.947083,380.868835 671.112183,405.130493 
	C671.129761,407.716187 672.516968,410.292542 673.268799,412.873260 
	C673.268799,412.873260 673.120544,412.874329 673.189819,413.131653 
	C674.391724,414.284607 675.524292,415.180206 676.656860,416.075806 
	C677.807861,416.376862 678.958862,416.677979 680.109863,416.979065 
	C680.172668,417.351776 680.235535,417.724487 680.298401,418.097198 
	C673.423584,419.159546 666.548828,420.221893 659.356140,421.333344 
	C659.053467,419.687836 658.806458,418.344513 658.578064,417.102692 
	C654.544739,418.520782 650.909790,420.312622 647.071472,421.060699 
	C629.035278,424.575928 614.896118,412.785736 614.024902,393.773529 
	C612.916321,369.581360 629.395325,355.084412 654.418823,358.243134 
	C655.550842,358.386078 656.676941,358.575989 658.673767,358.873199 
	C657.927551,349.466827 660.387146,340.260254 656.216187,330.910645 
	C655.754150,329.576385 655.783264,328.638062 655.812317,327.699768 
M649.008789,365.370789 
	C637.371948,364.975494 631.551758,369.333191 629.596436,380.734619 
	C628.793091,385.418518 628.691406,390.361420 629.160217,395.098450 
	C630.483765,408.473389 641.617859,415.641357 654.599792,412.093597 
	C657.755859,411.231140 658.819824,409.724030 658.766724,406.509766 
	C658.601990,396.545471 658.720642,386.576447 658.730164,376.609283 
	C658.738647,367.688629 658.523560,367.418793 649.008789,365.370789 
z"/>
<path fill="#121212" opacity="1.000000" stroke="none" 
	d="
M988.438599,386.669556 
	C985.719055,381.345428 983.202942,376.328064 980.407593,370.753723 
	C980.407593,387.667633 980.407593,403.904572 980.407593,420.406128 
	C977.098816,420.406128 973.674805,420.406128 970.025635,420.406128 
	C970.025635,398.562408 970.025635,376.815765 970.025635,354.570892 
	C972.782471,354.570892 975.413086,354.732788 978.014832,354.527374 
	C980.867676,354.302185 982.424744,355.337463 983.802612,357.956451 
	C991.472473,372.534302 999.376953,386.988708 1007.215515,401.477570 
	C1007.567932,402.129028 1008.059692,402.705109 1008.672485,403.582397 
	C1008.672485,387.171387 1008.672485,371.289703 1008.672485,355.003876 
	C1011.805176,355.003876 1015.323914,355.003876 1019.099670,355.003876 
	C1019.099670,376.780304 1019.099670,398.518982 1019.099670,420.660187 
	C1015.724792,420.660187 1012.549500,420.978668 1009.491394,420.518616 
	C1008.076843,420.305817 1006.440308,418.832153 1005.672729,417.490570 
	C999.888306,407.380737 994.295105,397.161438 988.438599,386.669556 
z"/>
<path fill="#141414" opacity="1.000000" stroke="none" 
	d="
M836.265015,403.000427 
	C836.265320,408.982727 836.265320,414.465881 836.265320,420.313904 
	C832.525146,420.313904 829.005859,420.313904 825.238647,420.313904 
	C825.238647,398.525970 825.238647,376.912964 825.238647,354.601166 
	C828.680176,354.601166 832.141724,354.319580 835.513184,354.747864 
	C836.759277,354.906219 838.159058,356.534851 838.868103,357.832153 
	C846.769043,372.288055 854.546265,386.811615 862.367004,401.311432 
	C862.725769,401.976624 863.180847,402.589844 863.970459,403.816803 
	C863.970459,387.044983 863.970459,371.077148 863.970459,354.847656 
	C867.221008,354.847656 870.640076,354.847656 874.395264,354.847656 
	C874.395264,376.698944 874.395264,398.407257 874.395264,420.652405 
	C870.901184,420.652405 867.576233,420.931091 864.341492,420.512207 
	C863.086365,420.349731 861.648438,418.823883 860.950745,417.557220 
	C853.403625,403.854919 845.992920,390.077484 838.525085,376.331390 
	C837.950012,375.272797 837.224304,374.296021 836.264771,372.811005 
	C836.264771,383.199280 836.264771,392.850311 836.265015,403.000427 
z"/>
<path fill="#121212" opacity="1.000000" stroke="none" 
	d="
M760.370850,364.402252 
	C768.515808,353.937256 779.180298,351.565033 790.999695,354.474792 
	C802.713562,357.358551 809.014221,365.833679 811.183472,377.390045 
	C813.467163,389.556519 812.753845,401.420776 804.917542,411.638153 
	C792.963684,427.224243 767.294678,424.873077 758.443726,407.087891 
	C751.406921,392.947937 751.908508,378.512604 760.370850,364.402252 
M783.418701,363.539978 
	C775.613953,363.601685 770.690613,367.693359 768.079346,374.763214 
	C764.904663,383.358307 765.059082,392.041931 768.274841,400.560608 
	C771.149780,408.176422 776.507874,411.847229 783.675171,411.645172 
	C790.120544,411.463409 795.602051,407.063507 798.123413,399.815643 
	C800.826111,392.046356 800.915283,384.071991 798.604431,376.283539 
	C796.535950,369.312012 792.155457,364.335114 783.418701,363.539978 
z"/>
<path fill="#890B26" opacity="1.000000" stroke="none" 
	d="
M497.337830,384.531738 
	C502.034241,361.065826 524.650513,350.388611 544.742615,361.837433 
	C546.875000,363.052490 548.889038,364.658691 550.573669,366.445709 
	C560.351379,376.817688 560.765625,398.742157 551.526794,410.649841 
	C542.661499,422.076080 524.039368,425.411804 510.714264,417.982880 
	C501.485870,412.837891 497.962616,404.357544 497.101471,394.436340 
	C496.829926,391.307861 497.178894,388.125549 497.337830,384.531738 
M522.197021,413.663513 
	C531.947998,416.179047 538.574524,412.809723 541.566589,403.288208 
	C544.378235,394.341187 544.279785,385.213470 541.435547,376.273071 
	C538.990967,368.588623 534.197510,364.924591 527.458923,364.972870 
	C520.636353,365.021667 515.432922,369.071045 513.312195,376.810120 
	C510.848114,385.802185 510.499390,395.027679 514.114258,403.742340 
	C515.604370,407.334900 518.993835,410.139618 522.197021,413.663513 
z"/>
<path fill="#890B26" opacity="1.000000" stroke="none" 
	d="
M505.998047,330.041931 
	C503.962769,333.380096 501.934265,336.350525 499.596313,339.774078 
	C498.091461,337.696045 497.091919,336.219421 495.994598,334.819458 
	C493.196472,331.249573 489.447876,330.399536 485.246185,331.435730 
	C481.056305,332.468994 479.316162,335.740936 479.156677,339.631348 
	C478.898560,345.929504 479.087219,352.245911 479.087219,359.076904 
	C483.160522,359.076904 487.397003,359.076904 491.985107,359.076904 
	C491.985107,361.980408 491.985107,364.368988 491.985107,367.111511 
	C487.714783,367.111511 483.591858,367.111511 479.219055,367.111511 
	C478.999634,368.155273 478.697906,368.919373 478.699554,369.682800 
	C478.727264,382.510254 478.665131,395.339966 478.899719,408.164093 
	C479.032654,415.428741 479.771759,415.956116 486.699799,417.296997 
	C487.800079,417.509979 488.766876,418.412445 489.795410,418.996155 
	C488.643402,419.518311 487.496887,420.478760 486.338531,420.493256 
	C477.185791,420.608032 468.030548,420.565887 458.876709,420.493256 
	C458.026825,420.486481 457.181244,419.934082 456.333679,419.635071 
	C457.002777,418.916199 457.569763,417.727783 458.357910,417.556396 
	C462.711884,416.609650 464.518127,413.649963 464.550781,409.622375 
	C464.664032,395.663696 464.594452,381.703552 464.594452,367.378540 
	C462.146393,367.193665 459.733276,367.011414 457.320190,366.829193 
	C457.027435,366.452606 456.734711,366.076019 456.441956,365.699432 
	C457.702820,364.496948 458.763062,362.772827 460.264313,362.195465 
	C463.917389,360.790588 465.242096,358.577484 465.076904,354.636414 
	C464.911163,350.681030 465.382904,346.641083 466.054993,342.720428 
	C467.482147,334.394897 471.809204,328.096100 480.214539,325.660248 
	C489.326477,323.019684 498.276581,322.778259 505.998047,330.041931 
z"/>
<path fill="#8A0824" opacity="1.000000" stroke="none" 
	d="
M426.647461,411.273041 
	C426.693512,409.751587 426.739532,408.230103 426.928650,405.874878 
	C427.030304,396.663879 426.988892,388.286652 426.947479,379.909454 
	C426.783081,379.058899 426.618683,378.208374 426.660431,376.631348 
	C425.807037,374.011322 424.747528,372.117767 423.688019,370.224243 
	C423.688019,370.224243 423.815674,370.182343 423.736938,369.950562 
	C423.324707,369.523712 422.991150,369.328613 422.657623,369.133514 
	C422.657623,369.133514 422.241150,369.020935 422.063416,368.527527 
	C420.282837,367.601624 418.679962,367.169159 417.077087,366.736694 
	C416.298370,366.712952 415.519623,366.689209 414.240662,366.209717 
	C411.224640,365.977936 408.708557,366.199005 406.193054,366.426453 
	C402.163025,366.790771 400.754822,368.794373 400.888519,372.989716 
	C401.215820,383.259521 400.802521,393.552124 401.084778,403.824585 
	C401.222839,408.849335 402.247192,413.849731 402.854279,418.731689 
	C397.945526,418.731689 391.913727,418.731689 386.808289,418.731689 
	C387.322327,415.057709 387.814453,411.540466 388.306580,408.023224 
	C388.236328,395.978058 388.166046,383.932922 388.384369,371.171021 
	C387.537720,368.047028 386.402466,365.639771 385.352509,363.413330 
	C386.286865,362.954895 387.658722,362.281799 389.030579,361.608704 
	C389.468414,361.452026 389.906281,361.295380 390.856506,361.363708 
	C391.912811,361.389526 392.456696,361.190338 393.000610,360.991180 
	C393.264893,360.804077 393.558319,360.696228 394.543274,360.791107 
	C397.320312,361.317993 399.434937,361.721405 401.549530,362.124786 
	C401.639618,362.265381 401.729706,362.405945 402.050079,362.969849 
	C405.862427,361.897766 409.444489,360.402405 413.026520,358.907043 
	C413.779907,358.654419 414.533325,358.401825 415.993622,358.456055 
	C417.185120,358.844879 417.667938,358.985809 418.154510,359.000244 
	C432.326538,359.420807 438.031342,364.880219 439.079285,378.864746 
	C439.160950,379.954376 440.089294,380.980591 440.624146,382.036285 
	C440.706512,390.055542 440.788879,398.074799 440.565979,406.862427 
	C440.841919,411.385803 441.423126,415.140778 442.021912,419.009216 
	C439.765778,419.009216 436.646545,419.009186 433.527283,419.009186 
	C430.486206,419.009186 427.445099,419.009216 424.090332,419.009216 
	C424.582764,417.233521 424.840668,416.303619 425.098541,415.373718 
	C425.191803,415.118927 425.285095,414.864166 425.910034,414.136353 
	C426.510284,412.866577 426.578888,412.069824 426.647461,411.273041 
z"/>
<path fill="#8A0824" opacity="1.000000" stroke="none" 
	d="
M342.069611,365.765381 
	C341.603027,365.758331 341.136475,365.751282 340.236572,365.297180 
	C336.447754,365.389954 333.092316,365.929840 329.488281,366.509705 
	C329.866974,365.643341 330.025238,364.757416 330.537292,364.191772 
	C335.145233,359.101471 345.827606,357.437408 353.923431,360.479034 
	C360.540405,362.965057 364.009338,368.624573 364.015411,376.961700 
	C364.020386,383.792511 363.925323,390.624878 364.041931,397.453674 
	C364.154724,404.057465 362.043304,411.261780 369.448517,415.968231 
	C365.838348,419.704590 361.414764,421.106628 358.334717,418.840210 
	C353.211060,415.070068 349.111481,415.035950 344.285034,418.645844 
	C343.177856,419.473969 341.463013,419.548309 340.001312,419.833954 
	C332.545135,421.291168 323.504639,417.506836 321.430542,411.377472 
	C319.060089,404.372162 319.212250,397.648682 326.464630,392.262329 
	C329.285095,390.167542 333.069946,389.322876 336.477631,388.078857 
	C341.204529,386.353241 346.619080,385.682343 350.572723,382.901459 
	C354.495361,380.142395 353.431641,375.063690 351.388184,370.954956 
	C349.519257,367.197083 346.834564,364.510498 342.069611,365.765381 
M351.678558,393.073914 
	C351.525085,391.872375 351.371613,390.670868 351.148926,388.927399 
	C346.700928,390.703949 342.777252,392.038147 339.063354,393.811646 
	C334.102356,396.180634 331.988495,400.911591 333.116028,406.200928 
	C334.084625,410.744720 337.929626,413.136658 343.413483,412.606873 
	C350.248627,411.946594 351.623962,410.660919 351.639801,404.907654 
	C351.649841,401.255524 351.654327,397.603363 351.678558,393.073914 
z"/>
<path fill="#8D021F" opacity="1.000000" stroke="none" 
	d="
M240.974594,420.645966 
	C240.520782,420.735992 240.066956,420.825989 238.980118,420.595886 
	C233.452011,419.533691 228.571915,418.666382 223.658371,418.078522 
	C216.078720,417.171783 213.645050,413.389313 215.847061,406.358246 
	C217.258530,407.872162 218.733231,409.698639 220.453079,411.254089 
	C226.342422,416.580475 233.708923,415.594452 240.438034,414.706757 
	C251.370483,413.264557 254.564697,403.721191 252.307968,395.227112 
	C250.338120,387.812805 244.157669,384.720673 238.975754,380.582428 
	C234.234879,376.796387 229.396927,372.998322 224.127625,370.054199 
	C220.567215,368.064850 219.779861,364.911072 218.481964,361.848969 
	C215.559280,354.953400 216.554169,347.745850 221.302628,342.737915 
	C231.439880,332.046722 244.880859,332.751038 258.062317,335.000977 
	C262.576691,335.771545 262.950653,338.447754 260.164978,342.418854 
	C257.126831,341.144867 254.173874,338.950623 251.143616,338.838165 
	C245.143021,338.615448 238.746735,338.446320 233.155426,340.246857 
	C224.388947,343.069824 224.464996,359.012360 233.289948,364.645386 
	C240.347809,369.150421 247.086472,374.156586 253.953552,378.959290 
	C261.263123,384.071503 263.565216,391.572113 262.758240,399.857239 
	C261.882538,408.847992 256.798431,414.934143 247.897812,417.613861 
	C245.502869,418.334900 243.277695,419.619873 240.974594,420.645966 
z"/>
<path fill="#141414" opacity="1.000000" stroke="none" 
	d="
M902.750366,375.000305 
	C902.750366,387.137695 902.750366,398.775177 902.750366,410.686584 
	C911.971313,410.686584 920.748962,410.686584 929.872803,410.686584 
	C929.872803,414.000244 929.872803,417.048157 929.872803,420.389648 
	C917.114990,420.389648 904.378296,420.389648 891.281799,420.389648 
	C891.281799,398.682770 891.281799,376.959595 891.281799,354.902527 
	C894.901978,354.902527 898.619507,354.902527 902.750427,354.902527 
	C902.750427,361.579712 902.750427,368.040009 902.750366,375.000305 
z"/>
<path fill="#0E0E0E" opacity="1.000000" stroke="none" 
	d="
M1062.006958,390.979187 
	C1061.556152,391.042908 1061.105469,391.106659 1060.069824,390.791992 
	C1056.734985,389.943665 1053.995239,389.399017 1051.232666,389.022003 
	C1047.415771,388.501068 1045.716553,390.087799 1045.950684,394.091034 
	C1046.193359,398.239929 1046.539795,402.505219 1045.859009,406.554443 
	C1045.026489,411.505219 1047.111816,412.175842 1051.229858,412.058655 
	C1058.990723,411.837830 1066.762451,411.994965 1074.625732,411.994965 
	C1074.625732,414.608948 1074.625732,416.473389 1074.625732,417.634277 
	C1071.593628,417.049896 1068.888672,416.176300 1066.156372,416.079620 
	C1061.350830,415.909546 1055.716675,414.696747 1051.928589,416.723083 
	C1047.654663,419.009277 1045.636475,419.883698 1043.820679,415.075104 
	C1042.259033,416.104065 1041.016357,416.922882 1039.773682,417.741699 
	C1039.083130,416.332916 1037.921387,414.962921 1037.801514,413.507141 
	C1037.562988,410.608917 1037.976074,407.663757 1037.981934,404.737701 
	C1038.011475,389.916534 1038.005737,375.095306 1037.987915,360.274078 
	C1037.985107,358.006226 1037.850708,355.936188 1041.181396,355.967194 
	C1051.817749,356.066376 1062.455566,356.003998 1073.694702,356.003998 
	C1072.065430,358.469757 1076.966064,362.801361 1070.889648,362.938477 
	C1062.411011,363.129761 1053.922729,362.894531 1045.264160,362.840729 
	C1045.476074,366.918091 1046.094238,372.015839 1045.900635,377.082581 
	C1045.723877,381.708374 1047.286743,383.339905 1051.917358,383.076233 
	C1057.809937,382.740631 1063.736084,382.994934 1069.232422,382.994934 
	C1069.984375,385.953125 1070.499390,387.979065 1071.014404,390.005005 
	C1070.571899,390.393341 1070.129395,390.781647 1069.177246,390.767700 
	C1066.447266,390.570038 1064.227173,390.774597 1062.006958,390.979187 
z"/>
<path fill="#7B1D33" opacity="1.000000" stroke="none" 
	d="
M241.375122,420.720337 
	C243.277695,419.619873 245.502869,418.334900 247.897812,417.613861 
	C256.798431,414.934143 261.882538,408.847992 262.758240,399.857239 
	C263.565216,391.572113 261.263123,384.071503 253.953552,378.959290 
	C247.086472,374.156586 240.347809,369.150421 233.289948,364.645386 
	C224.464996,359.012360 224.388947,343.069824 233.155426,340.246857 
	C238.746735,338.446320 245.143021,338.615448 251.143616,338.838165 
	C254.173874,338.950623 257.126831,341.144867 260.164978,342.418854 
	C262.950653,338.447754 262.576691,335.771545 258.062317,335.000977 
	C244.880859,332.751038 231.439880,332.046722 221.302628,342.737915 
	C216.554169,347.745850 215.559280,354.953400 218.481964,361.848969 
	C219.779861,364.911072 220.567215,368.064850 224.127625,370.054199 
	C229.396927,372.998322 234.234879,376.796387 238.975754,380.582428 
	C244.157669,384.720673 250.338120,387.812805 252.307968,395.227112 
	C254.564697,403.721191 251.370483,413.264557 240.438034,414.706757 
	C233.708923,415.594452 226.342422,416.580475 220.453079,411.254089 
	C218.733231,409.698639 217.258530,407.872162 215.847061,406.358246 
	C213.645050,413.389313 216.078720,417.171783 223.658371,418.078522 
	C228.571915,418.666382 233.452011,419.533691 238.635834,420.528625 
	C231.519730,420.150482 224.100113,419.641571 216.726898,418.749329 
	C215.689636,418.623840 214.159912,416.666809 214.089081,415.483887 
	C213.792175,410.525818 213.963776,405.539642 215.056915,399.703796 
	C215.873138,400.720184 217.208817,401.640320 217.417999,402.769196 
	C218.470581,408.449219 222.005692,411.703491 227.382446,412.549194 
	C231.596436,413.211975 236.044754,413.499268 240.244568,412.915161 
	C250.203247,411.530060 254.835388,400.896393 249.277878,392.446533 
	C247.678360,390.014587 245.322830,387.939911 242.959045,386.177399 
	C236.425339,381.305634 229.273148,377.181946 223.145508,371.863739 
	C209.696213,360.191132 214.289536,339.487518 231.208969,334.001343 
	C238.511536,331.633453 251.854263,331.677155 263.192596,334.181030 
	C263.192596,339.963989 263.192596,345.828369 263.192596,351.692749 
	C262.836456,351.914307 262.480316,352.135834 262.124176,352.357361 
	C261.413757,351.347931 260.260529,350.415802 260.068451,349.315826 
	C259.165009,344.142670 255.971176,341.330505 251.058289,340.646515 
	C247.298111,340.122955 243.427002,339.972443 239.636856,340.194855 
	C234.885193,340.473694 230.713104,342.365784 229.217484,347.334106 
	C227.629791,352.608276 228.159012,357.797821 232.748535,361.465210 
	C237.027344,364.884369 241.712280,367.796906 246.234467,370.909180 
	C248.565826,372.513641 250.919327,374.086853 253.284805,375.640717 
	C263.009796,382.029144 266.640503,390.944397 264.390167,402.315887 
	C262.147858,413.646881 254.110184,418.379791 243.742630,420.460754 
	C243.090881,420.591522 242.431503,420.684265 241.375122,420.720337 
z"/>
<path fill="#8A0824" opacity="1.000000" stroke="none" 
	d="
M599.208923,369.372955 
	C599.208923,369.372955 599.135864,369.332306 598.896240,368.975952 
	C589.967163,364.143036 585.011597,366.994415 585.010681,376.476624 
	C585.009705,387.132446 585.052307,397.788422 585.000732,408.443970 
	C584.976379,413.474762 585.929749,417.729614 591.883789,418.571167 
	C584.748230,418.571167 577.612610,418.571167 571.749146,418.571167 
	C572.521851,413.052399 573.706970,407.874237 573.878601,402.662720 
	C574.212708,392.517334 574.212036,382.344543 573.832886,372.202423 
	C573.724182,369.294098 571.841064,366.452148 570.771484,363.579742 
	C570.313110,363.712097 569.854675,363.844452 569.396240,363.976807 
	C569.934082,363.167786 570.471924,362.358795 571.009766,361.549805 
	C571.759277,361.383972 572.508728,361.218109 573.918823,361.341553 
	C577.716064,361.878601 580.850159,362.167969 583.990295,362.360260 
	C586.263062,362.499390 588.577026,362.786713 590.813843,362.518280 
	C595.149109,361.997986 599.616577,360.027771 603.713013,360.671417 
	C609.742920,361.618774 610.524597,365.636322 605.731567,369.440369 
	C604.408569,370.490387 601.428650,369.452728 599.208923,369.372955 
z"/>
<path fill="#121212" opacity="1.000000" stroke="none" 
	d="
M941.475403,417.545990 
	C941.482544,396.485626 941.482544,375.881714 941.482544,354.933655 
	C945.254089,354.933655 948.842957,354.933655 952.816528,354.933655 
	C952.816528,376.553070 952.816528,398.381500 952.816528,420.667999 
	C949.847534,420.667999 946.874512,420.876251 943.962585,420.545624 
	C943.046692,420.441620 942.295105,418.890961 941.475403,417.545990 
z"/>
<path fill="#1B1A1B" opacity="1.000000" stroke="none" 
	d="
M720.184387,404.000366 
	C720.184387,411.148010 720.184387,417.795685 720.184387,424.727234 
	C718.221680,424.727234 716.488037,424.727234 714.509155,424.727234 
	C714.509155,386.708679 714.509155,348.826508 714.509155,310.606018 
	C716.362305,310.606018 718.084351,310.606018 720.184387,310.606018 
	C720.184387,341.637482 720.184387,372.568970 720.184387,404.000366 
z"/>
<path fill="#121212" opacity="1.000000" stroke="none" 
	d="
M1071.126587,389.638641 
	C1070.499390,387.979065 1069.984375,385.953125 1069.232422,382.994934 
	C1063.736084,382.994934 1057.809937,382.740631 1051.917358,383.076233 
	C1047.286743,383.339905 1045.723877,381.708374 1045.900635,377.082581 
	C1046.094238,372.015839 1045.476074,366.918091 1045.264160,362.840729 
	C1053.922729,362.894531 1062.411011,363.129761 1070.889648,362.938477 
	C1076.966064,362.801361 1072.065430,358.469757 1073.694702,356.003998 
	C1062.455566,356.003998 1051.817749,356.066376 1041.181396,355.967194 
	C1037.850708,355.936188 1037.985107,358.006226 1037.987915,360.274078 
	C1038.005737,375.095306 1038.011475,389.916534 1037.981934,404.737701 
	C1037.976074,407.663757 1037.562988,410.608917 1037.801514,413.507141 
	C1037.921387,414.962921 1039.083130,416.332916 1039.773682,417.741699 
	C1041.016357,416.922882 1042.259033,416.104065 1043.820679,415.075104 
	C1045.636475,419.883698 1047.654663,419.009277 1051.928589,416.723083 
	C1055.716675,414.696747 1061.350830,415.909546 1066.156372,416.079620 
	C1068.888672,416.176300 1071.593628,417.049896 1074.625732,417.634277 
	C1074.625732,416.473389 1074.625732,414.608948 1074.625732,411.994965 
	C1066.762451,411.994965 1058.990723,411.837830 1051.229858,412.058655 
	C1047.111816,412.175842 1045.026489,411.505219 1045.859009,406.554443 
	C1046.539795,402.505219 1046.193359,398.239929 1045.950684,394.091034 
	C1045.716553,390.087799 1047.415771,388.501068 1051.232666,389.022003 
	C1053.995239,389.399017 1056.734985,389.943665 1059.738525,390.696442 
	C1056.010498,390.979309 1052.028687,390.979309 1047.719482,390.979309 
	C1047.719482,397.633728 1047.719482,403.868988 1047.719482,410.705505 
	C1057.264282,410.705505 1066.814941,410.705505 1076.347534,410.705505 
	C1076.347534,414.245148 1076.347534,417.184937 1076.347534,420.400208 
	C1062.812988,420.400208 1049.550781,420.400208 1036.001465,420.400208 
	C1036.001465,398.628479 1036.001465,376.875275 1036.001465,354.847656 
	C1048.984131,354.847656 1061.901855,354.847656 1075.189941,354.847656 
	C1075.189941,357.880646 1075.189941,360.919037 1075.189941,364.468414 
	C1065.974243,364.468414 1056.898315,364.468414 1047.593506,364.468414 
	C1047.593506,370.218018 1047.593506,375.466095 1047.593506,381.110962 
	C1055.312744,381.110962 1062.925049,381.110962 1071.238770,381.110962 
	C1071.238770,384.086670 1071.238770,386.679474 1071.126587,389.638641 
z"/>
<path fill="#7B1D33" opacity="1.000000" stroke="none" 
	d="
M281.955994,356.960449 
	C284.796936,352.984680 287.637878,349.008942 290.478821,345.033203 
	C290.960968,345.294647 291.443146,345.556091 291.925293,345.817535 
	C291.925293,350.072266 291.925293,354.327026 291.925293,359.215240 
	C299.035950,359.215240 305.763153,359.215240 312.749908,359.215240 
	C312.749908,362.098755 312.749908,364.350677 312.749908,367.017426 
	C306.114410,367.017426 299.520020,367.017426 292.169647,367.017426 
	C292.169647,370.817261 292.168915,374.223480 292.169800,377.629700 
	C292.171783,385.290192 292.107574,392.951416 292.192413,400.610992 
	C292.327484,412.806732 297.997009,416.784210 309.639801,412.957733 
	C310.254852,412.755585 310.877289,412.575806 313.246521,411.847778 
	C311.988007,414.337311 311.641602,415.936584 310.654938,416.823914 
	C304.844421,422.049469 292.474426,423.302856 285.647339,419.404083 
	C279.923920,416.135559 278.238403,410.578278 278.133118,404.537628 
	C277.950317,394.049896 278.103851,383.556366 278.115601,373.065247 
	C278.117615,371.262360 278.115875,369.459473 278.115875,367.520630 
	C275.307220,367.279724 272.878540,367.071411 268.744751,366.716827 
	C273.226318,363.502899 276.532532,361.131897 280.278320,358.747528 
	C280.717926,358.734161 281.005798,359.005585 280.846985,359.308594 
	C278.931366,361.049927 277.174530,362.488251 275.417694,363.926544 
	C276.121185,364.075989 276.824707,364.225433 277.528198,364.374878 
	C278.341766,367.328217 279.747192,370.259766 279.856934,373.239014 
	C280.174957,381.872986 279.964874,390.526123 279.977356,399.171753 
	C279.984222,403.942261 280.127197,408.393463 282.584930,413.030548 
	C286.425201,420.276215 297.877228,423.223694 304.420197,417.630188 
	C304.575775,417.497192 304.439789,417.023132 304.439789,416.420258 
	C303.722656,416.279602 302.966858,416.049011 302.198395,415.993256 
	C293.761292,415.381012 290.047455,411.439148 290.030792,402.972748 
	C290.010162,392.498291 290.153625,382.021240 289.953217,371.550537 
	C289.876953,367.565338 290.988495,365.646545 295.287811,365.943909 
	C299.183319,366.213440 303.130341,366.208405 307.016479,365.876862 
	C308.297760,365.767578 309.459930,364.262054 310.676575,363.394958 
	C309.480194,362.591431 308.332123,361.197540 307.078369,361.094879 
	C303.279388,360.783783 299.436401,361.065948 295.616364,360.940430 
	C291.941742,360.819672 289.592346,359.262268 289.990967,355.081268 
	C290.093018,354.011017 289.887207,352.911407 289.803650,351.501129 
	C287.032135,353.603088 284.632996,355.422638 282.164734,357.171417 
	C282.095612,357.100647 281.955994,356.960449 281.955994,356.960449 
z"/>
<path fill="#7B1D33" opacity="1.000000" stroke="none" 
	d="
M342.382019,365.920959 
	C346.834564,364.510498 349.519257,367.197083 351.388184,370.954956 
	C353.431641,375.063690 354.495361,380.142395 350.572723,382.901459 
	C346.619080,385.682343 341.204529,386.353241 336.477631,388.078857 
	C333.069946,389.322876 329.285095,390.167542 326.464630,392.262329 
	C319.212250,397.648682 319.060089,404.372162 321.430542,411.377472 
	C323.504639,417.506836 332.545135,421.291168 340.001312,419.833954 
	C341.463013,419.548309 343.177856,419.473969 344.285034,418.645844 
	C349.111481,415.035950 353.211060,415.070068 358.334717,418.840210 
	C361.414764,421.106628 365.838348,419.704590 369.448517,415.968231 
	C362.043304,411.261780 364.154724,404.057465 364.041931,397.453674 
	C363.925323,390.624878 364.020386,383.792511 364.015411,376.961700 
	C364.009338,368.624573 360.540405,362.965057 353.923431,360.479034 
	C345.827606,357.437408 335.145233,359.101471 330.537292,364.191772 
	C330.025238,364.757416 329.866974,365.643341 329.488281,366.509705 
	C333.092316,365.929840 336.447754,365.389954 339.913391,365.155853 
	C332.851074,366.811768 331.832306,367.395386 326.000061,374.152527 
	C325.571411,371.644012 324.578247,369.553864 325.198181,368.812347 
	C327.813110,365.684540 330.476105,362.188995 333.921936,360.251495 
	C340.444153,356.584015 347.750488,356.723877 354.777435,359.025543 
	C360.844482,361.012848 364.707397,365.516479 365.001160,371.908966 
	C365.459015,381.872192 365.208740,391.867493 365.286804,401.848999 
	C365.303680,404.008942 365.275085,406.190247 365.562286,408.321991 
	C365.952576,411.219177 367.467957,412.813385 370.720673,412.162170 
	C371.671021,411.971863 372.750519,412.426880 373.770874,412.586121 
	C373.459839,413.591461 373.399841,414.790192 372.797974,415.571381 
	C368.191589,421.549591 361.184570,422.869476 354.639404,418.898651 
	C352.077484,417.344391 350.394653,417.215820 347.282990,418.746796 
	C340.560577,422.054199 333.039795,423.286499 326.138885,418.697632 
	C315.281433,411.477875 316.637878,394.653137 328.580566,389.247223 
	C333.862305,386.856384 339.603668,385.500214 345.002655,383.340057 
	C347.363342,382.395538 350.860443,380.948303 351.271942,379.143494 
	C352.246765,374.867950 351.016144,370.483398 346.795593,367.843262 
	C345.548248,367.063019 344.067932,366.655090 342.382019,365.920959 
z"/>
<path fill="#7B1D33" opacity="1.000000" stroke="none" 
	d="
M570.599731,361.463013 
	C570.471924,362.358795 569.934082,363.167786 569.396240,363.976807 
	C569.854675,363.844452 570.313110,363.712097 570.771484,363.579742 
	C571.841064,366.452148 573.724182,369.294098 573.832886,372.202423 
	C574.212036,382.344543 574.212708,392.517334 573.878601,402.662720 
	C573.706970,407.874237 572.521851,413.052399 571.749146,418.571167 
	C577.612610,418.571167 584.748230,418.571167 591.883789,418.571167 
	C585.929749,417.729614 584.976379,413.474762 585.000732,408.443970 
	C585.052307,397.788422 585.009705,387.132446 585.010681,376.476624 
	C585.011597,366.994415 589.967163,364.143036 598.855103,368.968811 
	C597.757629,369.026978 596.473022,368.665100 595.163879,368.456787 
	C588.525513,367.400360 586.427124,369.205627 586.453674,375.906433 
	C586.495850,386.548737 586.403748,397.194122 586.639709,407.832214 
	C586.799561,415.036896 587.748718,415.790436 594.855896,417.160339 
	C595.865479,417.354889 596.703857,418.437408 597.621460,419.109009 
	C596.593445,419.605774 595.570007,420.522766 594.536682,420.534058 
	C584.584717,420.642883 574.631104,420.599274 563.403198,420.599274 
	C564.561279,419.053772 565.097900,417.565002 565.873535,417.427856 
	C570.887390,416.541443 572.266357,413.088348 572.307251,408.729950 
	C572.421143,396.595825 572.480042,384.460571 572.448486,372.326050 
	C572.440308,369.174500 571.605591,366.453430 567.802002,365.638031 
	C566.522522,365.363708 565.463135,364.062958 564.303162,363.231354 
	C565.600708,362.621674 566.869934,361.935638 568.208984,361.437561 
	C568.795654,361.219330 569.525146,361.384949 570.599731,361.463013 
z"/>
<path fill="#FDF8FA" opacity="1.000000" stroke="none" 
	d="
M806.981567,632.941956 
	C806.506104,634.677551 805.865051,636.358948 806.285278,637.710449 
	C807.096680,640.320068 808.506958,642.743469 808.905273,646.275757 
	C807.656189,645.483032 806.023376,644.959412 805.238831,643.840820 
	C803.663025,641.594238 802.805542,638.824158 801.132507,636.674011 
	C800.362732,635.684875 798.369568,635.647705 796.931152,635.178772 
	C796.556824,636.398865 795.839050,637.629761 795.877136,638.836792 
	C795.965454,641.635803 796.548157,644.482300 792.059753,645.913330 
	C792.059753,637.557800 791.997620,629.676331 792.146423,621.798828 
	C792.163086,620.916748 793.389038,619.300476 794.031128,619.312012 
	C797.779663,619.379028 802.094299,618.760498 805.137024,620.390625 
	C810.284912,623.148743 811.510193,626.120605 806.981567,632.941956 
z"/>
<path fill="#7B1D33" opacity="1.000000" stroke="none" 
	d="
M388.177338,408.384460 
	C387.814453,411.540466 387.322327,415.057709 386.808289,418.731689 
	C391.913727,418.731689 397.945526,418.731689 402.854279,418.731689 
	C402.247192,413.849731 401.222839,408.849335 401.084778,403.824585 
	C400.802521,393.552124 401.215820,383.259521 400.888519,372.989716 
	C400.754822,368.794373 402.163025,366.790771 406.193054,366.426453 
	C408.708557,366.199005 411.224640,365.977936 413.878357,366.060730 
	C402.146423,368.101471 402.140076,368.101471 402.141968,380.092560 
	C402.143402,389.240479 402.109955,398.388885 402.197632,407.536072 
	C402.242279,412.193268 402.660492,416.711090 408.698914,417.671112 
	C409.288239,417.764801 409.699127,418.980774 410.192871,419.675812 
	C409.543610,420.011536 408.896301,420.635284 408.244843,420.639679 
	C398.829346,420.702911 389.413300,420.682983 378.273041,420.682983 
	C382.599884,416.331726 389.158234,415.227753 388.177338,408.384460 
z"/>
<path fill="#7B1D33" opacity="1.000000" stroke="none" 
	d="
M673.216309,412.413086 
	C672.516968,410.292542 671.129761,407.716187 671.112183,405.130493 
	C670.947083,380.868835 671.023987,356.605621 671.012146,332.342834 
	C671.009399,326.707581 670.490845,326.402985 664.987671,327.432678 
	C662.925293,327.818573 660.750488,327.603394 658.329468,327.408386 
	C662.738586,326.277313 667.445068,325.400177 672.502808,324.457550 
	C672.605713,325.838013 672.761414,326.933105 672.758118,328.027771 
	C672.681580,353.517120 672.568604,379.006439 672.527344,404.495850 
	C672.523315,406.981171 672.941528,409.467194 673.216309,412.413086 
z"/>
<path fill="#FDF8FA" opacity="1.000000" stroke="none" 
	d="
M860.991760,631.560669 
	C860.999573,636.458923 860.999573,640.914490 860.999573,645.436768 
	C857.003418,644.897888 857.002869,644.897888 857.000244,638.741516 
	C856.998901,635.773926 857.000000,632.806274 857.000000,629.970093 
	C848.798828,627.700317 846.865234,631.434937 848.820618,646.575500 
	C847.042419,645.341797 845.182861,644.659607 845.173462,643.952698 
	C845.058350,635.313904 845.203857,626.671387 845.346619,618.030823 
	C845.351501,617.735168 846.035278,617.450745 847.126709,616.590088 
	C847.972900,620.079407 848.711121,623.123291 849.524170,626.475952 
	C854.024048,626.112915 859.346863,624.320435 860.991760,631.560669 
z"/>
<path fill="#7B1D33" opacity="1.000000" stroke="none" 
	d="
M599.423340,369.658020 
	C601.428650,369.452728 604.408569,370.490387 605.731567,369.440369 
	C610.524597,365.636322 609.742920,361.618774 603.713013,360.671417 
	C599.616577,360.027771 595.149109,361.997986 590.813843,362.518280 
	C588.577026,362.786713 586.263062,362.499390 583.990295,362.360260 
	C580.850159,362.167969 577.716064,361.878601 574.306030,361.379517 
	C577.747314,360.299469 581.461914,359.470764 585.545227,358.559784 
	C585.962769,359.852386 586.377991,361.137756 586.915527,362.801880 
	C587.547302,362.521606 588.129761,362.339600 588.632507,362.028625 
	C594.481384,358.410736 600.668884,357.451202 607.212708,359.765656 
	C610.859985,361.055573 612.448303,363.222595 609.755005,366.865265 
	C609.462585,367.260834 609.288818,367.743378 609.053284,368.182007 
	C605.336670,375.103729 605.336426,375.103607 599.423340,369.658020 
z"/>
<path fill="#FDF8FA" opacity="1.000000" stroke="none" 
	d="
M762.997559,633.949585 
	C763.006958,628.806702 762.925293,624.150818 763.111938,619.505676 
	C763.144531,618.696411 764.308411,617.932617 764.949768,617.147827 
	C765.609619,617.733887 766.835510,618.311707 766.844177,618.907227 
	C766.968750,627.463013 766.929382,636.021057 766.929382,644.787842 
	C762.997620,643.553528 762.997620,643.553528 762.997559,633.949585 
z"/>
<path fill="#7B1D33" opacity="1.000000" stroke="none" 
	d="
M424.777588,415.523926 
	C424.840668,416.303619 424.582764,417.233521 424.090332,419.009216 
	C427.445099,419.009216 430.486206,419.009186 433.527283,419.009186 
	C436.646545,419.009186 439.765778,419.009216 442.021912,419.009216 
	C441.423126,415.140778 440.841919,411.385803 440.497101,407.327942 
	C439.955933,413.522797 443.848206,417.086823 449.891327,419.299652 
	C449.546478,419.637451 449.201599,419.975250 448.856720,420.313049 
	C438.750977,420.313049 428.645203,420.313049 418.539459,420.313049 
	C418.337738,419.898254 418.136047,419.483459 417.934357,419.068665 
	C420.108459,417.937164 422.282562,416.805664 424.777588,415.523926 
z"/>
<path fill="#7B1D33" opacity="1.000000" stroke="none" 
	d="
M440.716553,381.592346 
	C440.089294,380.980591 439.160950,379.954376 439.079285,378.864746 
	C438.031342,364.880219 432.326538,359.420807 418.154510,359.000244 
	C417.667938,358.985809 417.185120,358.844879 416.392517,358.519806 
	C432.134857,356.172394 439.578918,363.058594 440.716553,381.592346 
z"/>
<path fill="#7B1D33" opacity="1.000000" stroke="none" 
	d="
M388.602905,361.517395 
	C387.658722,362.281799 386.286865,362.954895 385.352509,363.413330 
	C386.402466,365.639771 387.537720,368.047028 388.432312,370.701477 
	C387.604065,367.594025 385.748474,365.748749 382.240540,365.302063 
	C381.242767,365.175049 380.408234,363.765961 378.504974,362.047394 
	C382.910889,361.764313 385.543091,361.595184 388.602905,361.517395 
z"/>
<path fill="#7B1D33" opacity="1.000000" stroke="none" 
	d="
M426.867950,380.309814 
	C426.988892,388.286652 427.030304,396.663879 427.032227,405.503723 
	C426.924622,397.547607 426.856537,389.128906 426.867950,380.309814 
z"/>
<path fill="#7B1D33" opacity="1.000000" stroke="none" 
	d="
M412.681580,358.858093 
	C409.444489,360.402405 405.862427,361.897766 402.099457,363.215393 
	C405.391235,361.628143 408.863922,360.218628 412.681580,358.858093 
z"/>
<path fill="#7B1D33" opacity="1.000000" stroke="none" 
	d="
M655.478760,327.613800 
	C655.783264,328.638062 655.754150,329.576385 655.845764,330.727539 
	C654.320129,330.812592 652.673767,330.684845 651.027405,330.557098 
	C650.966064,330.014709 650.904724,329.472321 650.843445,328.929932 
	C652.277344,328.462585 653.711304,327.995239 655.478760,327.613800 
z"/>
<path fill="#7B1D33" opacity="1.000000" stroke="none" 
	d="
M401.688293,361.776306 
	C399.434937,361.721405 397.320312,361.317993 394.773010,360.847931 
	C395.839996,360.158325 397.348663,359.556030 398.837372,358.907959 
	C401.555573,357.724670 402.012695,359.185974 401.688293,361.776306 
z"/>
<path fill="#121212" opacity="1.000000" stroke="none" 
	d="
M1062.342773,391.084351 
	C1064.227173,390.774597 1066.447266,390.570038 1068.829590,390.671204 
	C1066.887329,391.047821 1064.783081,391.118683 1062.342773,391.084351 
z"/>
<path fill="#7B1D33" opacity="1.000000" stroke="none" 
	d="
M423.801514,370.570312 
	C424.747528,372.117767 425.807037,374.011322 426.767273,376.320496 
	C425.750336,374.796234 424.832672,372.856323 423.801514,370.570312 
z"/>
<path fill="#7B1D33" opacity="1.000000" stroke="none" 
	d="
M417.367157,366.890991 
	C418.679962,367.169159 420.282837,367.601624 421.952576,368.342468 
	C420.565369,368.115631 419.111298,367.580444 417.367157,366.890991 
z"/>
<path fill="#7B1D33" opacity="1.000000" stroke="none" 
	d="
M676.436157,415.864502 
	C675.524292,415.180206 674.391724,414.284607 673.215698,413.062195 
	C674.186646,413.707977 675.201050,414.680603 676.436157,415.864502 
z"/>
<path fill="#7B1D33" opacity="1.000000" stroke="none" 
	d="
M392.808472,360.912323 
	C392.456696,361.190338 391.912811,361.389526 391.209595,361.389160 
	C391.572296,361.070892 392.094330,360.952179 392.808472,360.912323 
z"/>
<path fill="#7B1D33" opacity="1.000000" stroke="none" 
	d="
M426.442047,411.486084 
	C426.578888,412.069824 426.510284,412.866577 426.177490,413.829590 
	C426.021057,413.230255 426.128845,412.464722 426.442047,411.486084 
z"/>
<path fill="#7B1D33" opacity="1.000000" stroke="none" 
	d="
M280.580353,358.591980 
	C280.778198,358.022888 281.113586,357.596008 281.702515,357.064758 
	C281.955994,356.960449 282.095612,357.100647 282.069214,357.431610 
	C281.697144,358.176910 281.351471,358.591248 281.005798,359.005585 
	C281.005798,359.005585 280.717926,358.734161 280.580353,358.591980 
z"/>
<path fill="#7B1D33" opacity="1.000000" stroke="none" 
	d="
M422.743225,369.411438 
	C422.991150,369.328613 423.324707,369.523712 423.717316,370.014832 
	C423.460541,370.103699 423.144684,369.896545 422.743225,369.411438 
z"/>
<path fill="#FDF8FA" opacity="1.000000" stroke="none" 
	d="
M649.421265,365.422363 
	C658.523560,367.418793 658.738647,367.688629 658.730164,376.609283 
	C658.720642,386.576447 658.601990,396.545471 658.766724,406.509766 
	C658.819824,409.724030 657.755859,411.231140 654.599792,412.093597 
	C641.617859,415.641357 630.483765,408.473389 629.160217,395.098450 
	C628.691406,390.361420 628.793091,385.418518 629.596436,380.734619 
	C631.551758,369.333191 637.371948,364.975494 649.421265,365.422363 
z"/>
<path fill="#FDF8FA" opacity="1.000000" stroke="none" 
	d="
M783.850342,363.584381 
	C792.155457,364.335114 796.535950,369.312012 798.604431,376.283539 
	C800.915283,384.071991 800.826111,392.046356 798.123413,399.815643 
	C795.602051,407.063507 790.120544,411.463409 783.675171,411.645172 
	C776.507874,411.847229 771.149780,408.176422 768.274841,400.560608 
	C765.059082,392.041931 764.904663,383.358307 768.079346,374.763214 
	C770.690613,367.693359 775.613953,363.601685 783.850342,363.584381 
z"/>
<path fill="#FDF8FA" opacity="1.000000" stroke="none" 
	d="
M521.858215,413.483093 
	C518.993835,410.139618 515.604370,407.334900 514.114258,403.742340 
	C510.499390,395.027679 510.848114,385.802185 513.312195,376.810120 
	C515.432922,369.071045 520.636353,365.021667 527.458923,364.972870 
	C534.197510,364.924591 538.990967,368.588623 541.435547,376.273071 
	C544.279785,385.213470 544.378235,394.341187 541.566589,403.288208 
	C538.574524,412.809723 531.947998,416.179047 521.858215,413.483093 
z"/>
<path fill="#FDF8FA" opacity="1.000000" stroke="none" 
	d="
M351.669922,393.512573 
	C351.654327,397.603363 351.649841,401.255524 351.639801,404.907654 
	C351.623962,410.660919 350.248627,411.946594 343.413483,412.606873 
	C337.929626,413.136658 334.084625,410.744720 333.116028,406.200928 
	C331.988495,400.911591 334.102356,396.180634 339.063354,393.811646 
	C342.777252,392.038147 346.700928,390.703949 351.148926,388.927399 
	C351.371613,390.670868 351.525085,391.872375 351.669922,393.512573 
z"/>
<path fill="#8D021F" opacity="1.000000" stroke="none" 
	d="
M280.846985,359.308594 
	C281.351471,358.591248 281.697144,358.176910 282.138367,357.502380 
	C284.632996,355.422638 287.032135,353.603088 289.803650,351.501129 
	C289.887207,352.911407 290.093018,354.011017 289.990967,355.081268 
	C289.592346,359.262268 291.941742,360.819672 295.616364,360.940430 
	C299.436401,361.065948 303.279388,360.783783 307.078369,361.094879 
	C308.332123,361.197540 309.480194,362.591431 310.676575,363.394958 
	C309.459930,364.262054 308.297760,365.767578 307.016479,365.876862 
	C303.130341,366.208405 299.183319,366.213440 295.287811,365.943909 
	C290.988495,365.646545 289.876953,367.565338 289.953217,371.550537 
	C290.153625,382.021240 290.010162,392.498291 290.030792,402.972748 
	C290.047455,411.439148 293.761292,415.381012 302.198395,415.993256 
	C302.966858,416.049011 303.722656,416.279602 304.439789,416.420258 
	C304.439789,417.023132 304.575775,417.497192 304.420197,417.630188 
	C297.877228,423.223694 286.425201,420.276215 282.584930,413.030548 
	C280.127197,408.393463 279.984222,403.942261 279.977356,399.171753 
	C279.964874,390.526123 280.174957,381.872986 279.856934,373.239014 
	C279.747192,370.259766 278.341766,367.328217 277.528198,364.374878 
	C276.824707,364.225433 276.121185,364.075989 275.417694,363.926544 
	C277.174530,362.488251 278.931366,361.049927 280.846985,359.308594 
z"/>
</svg>